<svg width="84" height="38" viewBox="0 0 84 38" fill="none" xmlns="http://www.w3.org/2000/svg">
<path d="M31.6703 7.81192C34.2677 7.81192 36.272 8.38458 37.6831 9.52989C39.1148 10.6548 39.8306 12.2398 39.8306 14.285C39.8306 16.1052 39.4113 17.68 38.5728 19.0094C37.7547 20.3183 36.5685 21.3307 35.0142 22.0465C33.4803 22.7419 31.6703 23.0896 29.5842 23.0896H24.3382L23.0804 29.2865H19.0923L23.3872 7.81192H31.6703ZM29.7375 19.715C31.6805 19.715 33.1735 19.2855 34.2165 18.4265C35.28 17.5471 35.8118 16.2893 35.8118 14.6531C35.8118 13.5078 35.413 12.6488 34.6153 12.0762C33.8382 11.4831 32.7133 11.1865 31.2408 11.1865H26.7004L25.0131 19.715H29.7375ZM59.8899 12.9045L56.6381 29.2865H52.9874L53.3249 27.5992C51.8932 28.8673 50.1139 29.5013 47.9869 29.5013C46.637 29.5013 45.4099 29.2149 44.3055 28.6423C43.2216 28.0696 42.3626 27.2413 41.7286 26.1574C41.0946 25.053 40.7775 23.7645 40.7775 22.2919C40.7775 20.4717 41.1764 18.8356 41.974 17.3835C42.7921 15.9109 43.8965 14.7656 45.2872 13.9475C46.6984 13.1294 48.2732 12.7204 50.0116 12.7204C52.6295 12.7204 54.4906 13.5896 55.595 15.328L56.0552 12.9045H59.8899ZM48.9686 26.2187C50.0525 26.2187 51.0138 25.9631 51.8523 25.4518C52.7113 24.92 53.3862 24.194 53.8771 23.2736C54.3679 22.3328 54.6133 21.2693 54.6133 20.0831C54.6133 18.7947 54.235 17.7925 53.4782 17.0767C52.7215 16.3404 51.658 15.9723 50.2877 15.9723C49.2038 15.9723 48.2323 16.2381 47.3733 16.7699C46.5348 17.2812 45.8701 18.0072 45.3793 18.948C44.8884 19.8684 44.643 20.9217 44.643 22.1079C44.643 23.3964 45.0213 24.4087 45.7781 25.145C46.5348 25.8608 47.5983 26.2187 48.9686 26.2187ZM80.2769 12.9045L68.9874 30.7284C67.8626 32.5077 66.7888 33.7348 65.7662 34.4098C64.7641 35.1051 63.537 35.4528 62.0849 35.4528C61.2668 35.4528 60.4589 35.3199 59.6613 35.054C58.8637 34.7881 58.2399 34.4404 57.7899 34.0109L59.692 31.2192C60.4487 31.9146 61.3486 32.2623 62.3916 32.2623C63.0461 32.2623 63.6188 32.0885 64.1096 31.7408C64.6005 31.4135 65.1015 30.8409 65.6128 30.0228L66.1344 29.2252L62.2689 12.9045H66.1037L68.8647 25.053L76.4422 12.9045H80.2769Z" fill="white"/>
<path d="M80.8343 7.15319H80.3127V6.90589H81.6482V7.15319H81.1266V8.47964H80.8343V7.15319ZM83.3131 8.47964L83.3109 7.43647L82.7938 8.29979H82.6634L82.1463 7.44996V8.47964H81.8675V6.90589H82.1081L82.7331 7.94906L83.3468 6.90589H83.5874L83.5896 8.47964H83.3131Z" fill="white"/>
<path d="M19.0924 8.72787H14.3724L0.958775 22.793L0.547541 23.225L0 26.6905H2.26179L5.91438 22.793H5.72955L13.5961 14.5452L13.5869 14.6053L19.0924 8.72787Z" fill="white"/>
<path d="M15.9112 26.6905L15.1534 30.9646H10.9902L11.6695 26.6905H15.9112Z" fill="#FFB04A"/>
<path d="M19.0923 8.72787L19.0807 8.79025L16.6018 22.793H12.2861L13.5845 14.6076L19.0923 8.72787Z" fill="white"/>
<path d="M10.0012 22.793L9.38439 26.6905H2.26172L5.912 22.793H10.0012Z" fill="white"/>
</svg>
