<svg width="131" height="51" viewBox="0 0 131 51" fill="none" xmlns="http://www.w3.org/2000/svg">
<path d="M45.4597 10.4054C49.1602 10.4054 52.0157 11.2213 54.0262 12.853C56.0658 14.4556 57.0856 16.7137 57.0856 19.6275C57.0856 22.2208 56.4883 24.4644 55.2937 26.3583C54.1282 28.2231 52.4382 29.6654 50.2237 30.6853C48.0384 31.6759 45.4597 32.1713 42.4876 32.1713H35.0138L33.2219 41H27.54L33.6589 10.4054H45.4597ZM42.7062 27.3636C45.4743 27.3636 47.6013 26.7517 49.0873 25.5279C50.6025 24.275 51.3601 22.483 51.3601 20.152C51.3601 18.5203 50.7919 17.2965 49.6555 16.4806C48.5483 15.6356 46.9457 15.2131 44.8478 15.2131H38.3792L35.9754 27.3636H42.7062ZM85.6639 17.6607L81.031 41H75.8299L76.3107 38.5961C74.2711 40.4027 71.7361 41.3059 68.7058 41.3059C66.7827 41.3059 65.0344 40.898 63.461 40.0822C61.9167 39.2663 60.6929 38.0862 59.7896 36.5419C58.8864 34.9685 58.4347 33.1328 58.4347 31.0349C58.4347 28.4417 59.0029 26.1106 60.1393 24.0419C61.3048 21.944 62.8782 20.3122 64.8596 19.1467C66.8701 17.9812 69.1137 17.3985 71.5904 17.3985C75.32 17.3985 77.9715 18.6368 79.545 21.1135L80.2006 17.6607H85.6639ZM70.1044 36.6293C71.6487 36.6293 73.0181 36.2651 74.2128 35.5367C75.4366 34.7791 76.3981 33.7447 77.0974 32.4335C77.7967 31.0932 78.1464 29.578 78.1464 27.888C78.1464 26.0524 77.6073 24.6246 76.5292 23.6048C75.4511 22.5558 73.936 22.0314 71.9837 22.0314C70.4394 22.0314 69.0554 22.4102 67.8316 23.1677C66.637 23.8962 65.69 24.9306 64.9907 26.2709C64.2914 27.5821 63.9417 29.0827 63.9417 30.7727C63.9417 32.6083 64.4808 34.0507 65.5589 35.0996C66.637 36.1194 68.1521 36.6293 70.1044 36.6293ZM114.709 17.6607L98.6249 43.0542C97.0223 45.5892 95.4926 47.3374 94.0357 48.299C92.608 49.2897 90.8597 49.785 88.791 49.785C87.6254 49.785 86.4745 49.5956 85.3381 49.2168C84.2018 48.838 83.3131 48.3427 82.672 47.7308L85.3818 43.7535C86.4599 44.7442 87.742 45.2395 89.228 45.2395C90.1604 45.2395 90.9763 44.9919 91.6756 44.4965C92.3749 44.0303 93.0888 43.2145 93.8172 42.049L94.5602 40.9126L89.0532 17.6607H94.5165L98.4501 34.9685L109.246 17.6607H114.709Z" fill="black"/>
<path d="M116.69 9.06823H115.946V8.7159H117.849V9.06823H117.106V10.958H116.69V9.06823ZM120.221 10.958L120.218 9.47181L119.481 10.7018H119.295L118.559 9.49103V10.958H118.161V8.7159H118.504L119.395 10.2021L120.269 8.7159H120.612L120.615 10.958H120.221Z" fill="black"/>
<path d="M27.5634 11.2104H20.7492L1.38417 31.5557L0.790477 32.1806L0 37.1934H3.26531L8.53851 31.5557H8.27167L19.6286 19.6252L19.6152 19.7121L27.5634 11.2104Z" fill="#0729A2"/>
<path d="M22.9705 37.1934L21.8765 43.3758H15.8662L16.8468 37.1934H22.9705Z" fill="#FFB04A"/>
<path d="M27.5633 11.2104L27.5466 11.3007L23.9677 31.5557H17.7373L19.6118 19.7155L27.5633 11.2104Z" fill="url(#paint0_linear_4461_1996)"/>
<path d="M14.4391 31.5557L13.5485 37.1934H3.26562L8.53548 31.5557H14.4391Z" fill="url(#paint1_linear_4461_1996)"/>
<defs>
<linearGradient id="paint0_linear_4461_1996" x1="21.4493" y1="33.538" x2="24.9223" y2="-1.50084" gradientUnits="userSpaceOnUse">
<stop offset="0.00916586" stop-color="#0729A2"/>
<stop offset="0.5855" stop-color="#071555"/>
</linearGradient>
<linearGradient id="paint1_linear_4461_1996" x1="31.3899" y1="36.7461" x2="-19.1623" y2="31.4474" gradientUnits="userSpaceOnUse">
<stop offset="0.1293" stop-color="#0729A2"/>
<stop offset="0.2141" stop-color="#07289E"/>
<stop offset="0.2921" stop-color="#072593"/>
<stop offset="0.3674" stop-color="#072081"/>
<stop offset="0.4406" stop-color="#071A67"/>
<stop offset="0.4804" stop-color="#071555"/>
</linearGradient>
</defs>
</svg>
