<svg width="179" height="57" viewBox="0 0 179 57" fill="none" xmlns="http://www.w3.org/2000/svg">
<rect x="3.29874" y="1.20273" width="172.143" height="54.6808" rx="11.1387" fill="black" stroke="white" stroke-width="2.02521"/>
<rect width="130" height="34.2884" transform="translate(23.8486 11.1688)" fill="black"/>
<path d="M44.4639 27.2978C44.4294 23.4662 47.6021 21.6021 47.7471 21.5153C45.9503 18.8963 43.1653 18.5384 42.1867 18.5099C39.8476 18.2638 37.5787 19.9092 36.3872 19.9092C35.1719 19.9092 33.337 18.5337 31.3594 18.5741C28.8146 18.6133 26.434 20.0863 25.1283 22.3736C22.4337 27.0374 24.4433 33.8911 27.025 37.6609C28.3164 39.5083 29.8254 41.5686 31.8006 41.4961C33.733 41.4176 34.4548 40.2656 36.7867 40.2656C39.0972 40.2656 39.7751 41.4961 41.7895 41.4497C43.8634 41.4176 45.1691 39.5951 46.4153 37.7322C47.9077 35.6173 48.507 33.532 48.5308 33.425C48.4832 33.4084 44.5043 31.8891 44.4639 27.2978ZM40.6586 16.03C41.6979 14.7306 42.409 12.9628 42.2116 11.1688C40.7074 11.2354 38.8261 12.2091 37.7428 13.4799C36.7843 14.5998 35.9282 16.4354 36.1493 18.1616C37.8391 18.2876 39.5741 17.3092 40.6586 16.03Z" fill="white"/>
<path d="M72.4007 40.8315H69.7001L68.2208 36.1843H63.0789L61.6697 40.8315H59.0405L64.136 25.0104H67.2825L72.4007 40.8315ZM67.7749 34.2346L66.4371 30.1034C66.2955 29.6814 66.0292 28.6875 65.6391 27.123H65.5916C65.4346 27.7959 65.1837 28.7898 64.84 30.1034L63.5248 34.2346H67.7749ZM85.4789 34.9872C85.4789 36.9273 84.9521 38.4609 83.8974 39.5868C82.9532 40.589 81.7795 41.0895 80.3799 41.0895C78.8684 41.0895 77.7816 40.5509 77.1216 39.4715V45.4573H74.5863V33.173C74.5863 31.9544 74.5542 30.705 74.4924 29.4234H76.722L76.8635 31.2316H76.9111C77.7566 29.8692 79.0397 29.188 80.7616 29.188C82.1077 29.188 83.2314 29.7194 84.1304 30.7834C85.0283 31.8498 85.4789 33.2503 85.4789 34.9872ZM82.8961 35.0799C82.8961 33.9695 82.6464 33.0541 82.1446 32.3325C81.5964 31.5823 80.8603 31.2067 79.9375 31.2067C79.312 31.2067 78.7436 31.4159 78.2358 31.8284C77.7269 32.2445 77.3939 32.7878 77.2381 33.4607C77.1686 33.7123 77.1291 33.9713 77.1204 34.2323V36.1356C77.1204 36.9642 77.3749 37.6644 77.8838 38.2374C78.3928 38.8081 79.054 39.0946 79.8673 39.0946C80.8222 39.0946 81.5654 38.7249 82.097 37.9914C82.6297 37.2555 82.8961 36.2854 82.8961 35.0799ZM98.6036 34.9872C98.6036 36.9273 98.0768 38.4609 97.022 39.5868C96.0767 40.589 94.9042 41.0895 93.5033 41.0895C91.9919 41.0895 90.905 40.5509 90.2451 39.4715V45.4573H87.7098V33.173C87.7098 31.9544 87.6777 30.705 87.6158 29.4234H89.8455L89.987 31.2316H90.0346C90.8789 29.8692 92.162 29.188 93.8851 29.188C95.23 29.188 96.3537 29.7194 97.2551 30.7834C98.1517 31.8498 98.6036 33.2503 98.6036 34.9872ZM96.0196 35.0799C96.0196 33.9695 95.7687 33.0541 95.2669 32.3325C94.7187 31.5823 93.9849 31.2067 93.0622 31.2067C92.4367 31.2067 91.8683 31.4159 91.3581 31.8284C90.8492 32.2445 90.5174 32.7878 90.3616 33.4607C90.2843 33.7746 90.2427 34.0302 90.2427 34.2323V36.1356C90.2427 36.9642 90.4984 37.6644 91.0049 38.2374C91.5139 38.8069 92.1751 39.0946 92.9908 39.0946C93.9469 39.0946 94.6901 38.7249 95.2205 37.9914C95.7532 37.2555 96.0196 36.2854 96.0196 35.0799ZM113.278 36.3936C113.278 37.7405 112.807 38.8354 111.871 39.6807C110.841 40.6032 109.403 41.0657 107.56 41.0657C105.857 41.0657 104.492 40.7376 103.462 40.0801L104.049 37.9676C105.161 38.6262 106.382 38.9543 107.711 38.9543C108.667 38.9543 109.411 38.7379 109.941 38.3088C110.473 37.8784 110.741 37.303 110.741 36.585C110.741 35.9418 110.519 35.4033 110.082 34.9646C109.644 34.5271 108.918 34.1193 107.899 33.7448C105.128 32.7117 103.742 31.2007 103.742 29.213C103.742 27.9148 104.232 26.852 105.209 26.021C106.187 25.1911 107.483 24.7762 109.096 24.7762C110.536 24.7762 111.735 25.0271 112.688 25.5276L112.052 27.5938C111.155 27.1087 110.143 26.8662 109.011 26.8662C108.117 26.8662 107.415 27.0862 106.913 27.5236C106.491 27.9148 106.277 28.3915 106.277 28.9574C106.277 29.5815 106.521 30.0999 107.006 30.5064C107.427 30.8809 108.195 31.2887 109.306 31.7262C110.669 32.2754 111.67 32.915 112.311 33.6497C112.957 34.3844 113.278 35.301 113.278 36.3936ZM121.681 31.3255H118.887V36.8643C118.887 38.2731 119.379 38.9757 120.366 38.9757C120.819 38.9757 121.195 38.9377 121.492 38.858L121.563 40.7827C121.063 40.9694 120.406 41.0633 119.591 41.0633C118.59 41.0633 117.807 40.7578 117.242 40.1467C116.68 39.5357 116.397 38.5121 116.397 37.0712V31.3208H114.732V29.4187H116.397V27.3299L118.887 26.5785V29.4187H121.681V31.3255ZM134.265 35.0335C134.265 36.7871 133.763 38.2267 132.762 39.3526C131.714 40.5117 130.321 41.0895 128.583 41.0895C126.907 41.0895 125.574 40.5343 124.579 39.4251C123.585 38.3135 123.088 36.9131 123.088 35.2237C123.088 33.4559 123.602 32.0079 124.626 30.8821C125.652 29.7551 127.034 29.1916 128.771 29.1916C130.446 29.1916 131.79 29.748 132.808 30.8583C133.781 31.9354 134.265 33.3264 134.265 35.0335ZM131.637 35.0918C131.637 34.0468 131.411 33.1504 130.958 32.4003C130.427 31.4944 129.665 31.0414 128.68 31.0414C127.664 31.0414 126.885 31.4944 126.355 32.4003C125.901 33.1504 125.675 34.0622 125.675 35.1393C125.675 36.1855 125.901 37.0843 126.355 37.8321C126.903 38.7379 127.668 39.1909 128.658 39.1909C129.627 39.1909 130.387 38.7284 130.937 37.8095C131.403 37.0415 131.637 36.1391 131.637 35.0918ZM142.509 31.6525C142.246 31.6049 141.978 31.5814 141.71 31.5823C140.819 31.5823 140.129 31.9176 139.644 32.5928C139.223 33.1873 139.011 33.9386 139.011 34.8457V40.8315H136.476V33.0161C136.478 31.8185 136.453 30.6211 136.402 29.4246H138.61L138.703 31.6073H138.773C139.042 30.8571 139.463 30.252 140.041 29.7991C140.57 29.4033 141.213 29.189 141.873 29.188C142.108 29.188 142.319 29.2047 142.507 29.2344L142.509 31.6525ZM153.848 34.5877C153.854 34.973 153.823 35.358 153.755 35.7373H146.149C146.178 36.8643 146.547 37.7274 147.253 38.3219C147.894 38.8521 148.723 39.1184 149.741 39.1184C150.867 39.1184 151.894 38.94 152.818 38.5798L153.215 40.3381C152.136 40.8089 150.861 41.0431 149.39 41.0431C147.62 41.0431 146.232 40.5224 145.221 39.4833C144.212 38.4431 143.707 37.045 143.707 35.2939C143.707 33.5748 144.177 32.1423 145.117 30.9998C146.102 29.7801 147.433 29.1702 149.107 29.1702C150.751 29.1702 151.997 29.7801 152.842 30.9998C153.512 31.9663 153.848 33.1647 153.848 34.5877ZM151.431 33.9303C151.448 33.1778 151.282 32.5298 150.938 31.9818C150.499 31.2756 149.824 30.9237 148.919 30.9237C148.09 30.9237 147.415 31.2673 146.901 31.9568C146.479 32.5049 146.228 33.1635 146.151 33.9279L151.431 33.9303Z" fill="white"/>
<path d="M62.3474 19.417C61.6422 19.417 61.0322 19.3825 60.5244 19.3242V11.6753C61.2346 11.5656 61.9522 11.5115 62.6708 11.5136C65.5783 11.5136 66.9173 12.9438 66.9173 15.2751C66.9173 17.9642 65.3357 19.417 62.3474 19.417ZM62.7731 12.4944C62.3807 12.4944 62.0465 12.5182 61.7695 12.5752V18.3898C61.9193 18.4136 62.2071 18.4243 62.6114 18.4243C64.5164 18.4243 65.6009 17.3401 65.6009 15.3095C65.6009 13.4989 64.6199 12.4944 62.7731 12.4944ZM71.09 19.4752C69.4514 19.4752 68.3895 18.2519 68.3895 16.5911C68.3895 14.8602 69.474 13.6261 71.1828 13.6261C72.7976 13.6261 73.8833 14.7912 73.8833 16.4996C73.8833 18.2519 72.7644 19.4752 71.09 19.4752ZM71.1376 14.5368C70.2374 14.5368 69.6607 15.3785 69.6607 16.5554C69.6607 17.7098 70.2493 18.5515 71.1257 18.5515C72.0021 18.5515 72.5907 17.6516 72.5907 16.5317C72.5907 15.3904 72.014 14.5368 71.1376 14.5368ZM83.2277 13.7415L81.4737 19.348H80.3309L79.6044 16.9133C79.4237 16.3177 79.2733 15.7134 79.1537 15.1027H79.1299C79.0383 15.7137 78.8647 16.326 78.6804 16.9133L77.9074 19.348H76.7528L75.1022 13.7415H76.3829L77.0179 16.4068C77.1678 17.0417 77.2938 17.6409 77.3985 18.2067H77.4223C77.5138 17.7348 77.6637 17.1451 77.8837 16.4187L78.6804 13.7427H79.6959L80.4582 16.3617C80.6425 16.9965 80.7923 17.6195 80.9089 18.2079H80.9421C81.023 17.6313 81.1503 17.0191 81.3227 16.3617L82.0041 13.7427L83.2277 13.7415ZM89.6848 19.348H88.4386V16.1287C88.4386 15.1372 88.058 14.6402 87.3077 14.6402C86.5692 14.6402 86.0614 15.2751 86.0614 16.0133V19.348H84.8152V15.344C84.8152 14.8483 84.8033 14.3169 84.7688 13.7403H85.8652L85.9235 14.6058H85.958C86.2933 14.0066 86.9735 13.6261 87.7358 13.6261C88.913 13.6261 89.686 14.5261 89.686 15.9907L89.6848 19.348ZM93.1214 19.348H91.874V11.1688H93.1214V19.348ZM97.6652 19.4752C96.0277 19.4752 94.9646 18.2519 94.9646 16.5911C94.9646 14.8602 96.0491 13.6261 97.7568 13.6261C99.3728 13.6261 100.457 14.7912 100.457 16.4996C100.459 18.2519 99.3383 19.4752 97.6652 19.4752ZM97.7116 14.5368C96.8114 14.5368 96.2346 15.3785 96.2346 16.5554C96.2346 17.7098 96.8245 18.5515 97.6985 18.5515C98.5761 18.5515 99.1635 17.6516 99.1635 16.5317C99.1647 15.3904 98.5892 14.5368 97.7116 14.5368ZM105.371 19.348L105.281 18.7025H105.247C104.867 19.222 104.311 19.4752 103.607 19.4752C102.603 19.4752 101.889 18.7714 101.889 17.8251C101.889 16.4413 103.089 15.7256 105.166 15.7256V15.6222C105.166 14.8839 104.775 14.5142 104.002 14.5142C103.449 14.5142 102.964 14.6533 102.537 14.9303L102.284 14.1112C102.802 13.7878 103.449 13.6261 104.209 13.6261C105.674 13.6261 106.414 14.3989 106.414 15.9456V18.0106C106.414 18.5765 106.439 19.0151 106.495 19.3492L105.371 19.348ZM105.2 16.5554C103.815 16.5554 103.121 16.8907 103.121 17.686C103.121 18.2745 103.479 18.5622 103.976 18.5622C104.61 18.5622 105.2 18.0783 105.2 17.4209V16.5554ZM112.465 19.348L112.407 18.4481H112.373C112.015 19.1281 111.413 19.4752 110.572 19.4752C109.22 19.4752 108.219 18.2864 108.219 16.6137C108.219 14.8602 109.257 13.625 110.675 13.625C111.425 13.625 111.956 13.8782 112.256 14.387H112.281V11.1688H113.528V17.837C113.528 18.3791 113.542 18.8868 113.575 19.348H112.465ZM112.281 16.049C112.281 15.2644 111.761 14.5951 110.968 14.5951C110.044 14.5951 109.479 15.4142 109.479 16.5673C109.479 17.6979 110.066 18.4719 110.943 18.4719C111.727 18.4719 112.281 17.7906 112.281 16.9834V16.049ZM121.438 19.4752C119.8 19.4752 118.738 18.2519 118.738 16.5911C118.738 14.8602 119.823 13.6261 121.53 13.6261C123.146 13.6261 124.231 14.7912 124.231 16.4996C124.232 18.2519 123.113 19.4752 121.438 19.4752ZM121.484 14.5368C120.585 14.5368 120.008 15.3785 120.008 16.5554C120.008 17.7098 120.597 18.5515 121.472 18.5515C122.35 18.5515 122.937 17.6516 122.937 16.5317C122.939 15.3904 122.363 14.5368 121.484 14.5368ZM130.933 19.348H129.685V16.1287C129.685 15.1372 129.305 14.6402 128.555 14.6402C127.816 14.6402 127.31 15.2751 127.31 16.0133V19.348H126.062V15.344C126.062 14.8483 126.05 14.3169 126.016 13.7403H127.112L127.17 14.6058H127.205C127.539 14.0066 128.22 13.625 128.982 13.625C130.159 13.625 130.933 14.5249 130.933 15.9896V19.348ZM139.318 14.6759H137.947V17.3983C137.947 18.0914 138.187 18.4374 138.672 18.4374C138.892 18.4374 139.076 18.4136 139.225 18.3791L139.259 19.3254C139.018 19.4182 138.694 19.4645 138.293 19.4645C137.31 19.4645 136.723 18.9224 136.723 17.5029V14.6759H135.905V13.7415H136.723V12.7143L137.947 12.3446V13.7403H139.318V14.6759ZM145.915 19.348H144.67V16.1524C144.67 15.1491 144.291 14.6414 143.539 14.6414C142.893 14.6414 142.292 15.0801 142.292 15.9682V19.348H141.047V11.1688H142.292V14.5368H142.317C142.709 13.9257 143.277 13.625 144.003 13.625C145.19 13.625 145.915 14.5475 145.915 16.0133V19.348ZM152.674 16.8443H148.934C148.958 17.906 149.661 18.5051 150.701 18.5051C151.254 18.5051 151.763 18.4124 152.213 18.24L152.407 19.1055C151.876 19.3361 151.252 19.4515 150.525 19.4515C148.771 19.4515 147.733 18.3435 147.733 16.6256C147.733 14.9065 148.796 13.6143 150.385 13.6143C151.818 13.6143 152.717 14.6759 152.717 16.2796C152.725 16.4689 152.711 16.6584 152.674 16.8443ZM151.531 15.9563C151.531 15.0908 151.095 14.4797 150.298 14.4797C149.582 14.4797 149.016 15.1027 148.935 15.9563H151.531Z" fill="white"/>
</svg>
