<svg width="26" height="26" viewBox="0 0 26 26" fill="none" xmlns="http://www.w3.org/2000/svg">
<path d="M13 26C15.5712 26 18.0846 25.2376 20.2224 23.8091C22.3603 22.3806 24.0265 20.3503 25.0104 17.9749C25.9944 15.5994 26.2518 12.9856 25.7502 10.4638C25.2486 7.9421 24.0105 5.6257 22.1924 3.8076C20.3743 1.9895 18.0579 0.751399 15.5362 0.249799C13.0144 -0.251801 10.4005 0.00559784 8.0251 0.989598C5.6497 1.9735 3.6193 3.6397 2.1909 5.7776C0.762402 7.9154 1.36128e-06 10.4288 1.1365e-06 13C0.00660084 16.4458 1.3784 19.7485 3.8149 22.1851C6.2514 24.6216 9.5542 25.9934 13 26ZM8.05 13.05C8.1431 12.9563 8.2543 12.8825 8.3767 12.8331C8.4992 12.7837 8.6305 12.7597 8.7625 12.7625C8.8926 12.7599 9.0219 12.7841 9.1424 12.8335C9.2628 12.883 9.3717 12.9567 9.4625 13.05L12 15.5875L12 8C12 7.7348 12.1054 7.4804 12.2929 7.2929C12.4804 7.1054 12.7348 7 13 7C13.2652 7 13.5196 7.1054 13.7071 7.2929C13.8946 7.4804 14 7.7348 14 8L14 15.5875L16.5375 13.05C16.7277 12.8776 16.9769 12.785 17.2336 12.7914C17.4902 12.7977 17.7345 12.9024 17.9161 13.0839C18.0976 13.2655 18.2023 13.5098 18.2086 13.7664C18.215 14.0231 18.1224 14.2723 17.95 14.4625L13.7125 18.7C13.6188 18.7942 13.5087 18.8705 13.3875 18.925C13.1389 19.0251 12.8611 19.0251 12.6125 18.925C12.4913 18.8705 12.3812 18.7942 12.2875 18.7L8.05 14.4625C7.863 14.275 7.758 14.021 7.758 13.7563C7.758 13.4915 7.863 13.2375 8.05 13.05Z" fill="#28289F"/>
</svg>
