<svg width="413" height="234" viewBox="0 0 413 234" fill="none" xmlns="http://www.w3.org/2000/svg">
<g clip-path="url(#clip0_1543_26968)">
<g filter="url(#filter0_b_1543_26968)">
<rect width="413" height="234" rx="16" fill="url(#paint0_linear_1543_26968)"/>
<rect x="0.17444" y="0.17444" width="412.651" height="233.651" rx="15.8256" stroke="url(#paint1_radial_1543_26968)" stroke-width="0.348881"/>
<rect x="0.17444" y="0.17444" width="412.651" height="233.651" rx="15.8256" stroke="url(#paint2_radial_1543_26968)" stroke-width="0.348881"/>
</g>
<path d="M15.1269 167.346C52.8675 128.828 174.367 56.0936 358.442 73.3089" stroke="white" stroke-opacity="0.3"/>
<path d="M22.5886 185.216C55.1261 142.991 166.447 57.9126 351.433 55.4024" stroke="white" stroke-opacity="0.3"/>
<path d="M48.0691 222.449C67.0722 173.909 149.454 65.045 326.955 17.9117" stroke="white" stroke-opacity="0.3"/>
<path d="M30.8209 79.4095V98.5157V98.8887C30.8209 100.521 32.144 101.844 33.7761 101.844H64.8508C66.4829 101.844 67.806 100.521 67.806 98.8887V79.0365C67.806 77.4044 66.4829 76.0813 64.8508 76.0813H33.7761C32.144 76.0813 30.8209 77.4044 30.8209 79.0365V79.4095Z" fill="url(#paint3_linear_1543_26968)" stroke="#8D731D" stroke-width="0.246269"/>
<path d="M44.962 76.2045C43.4663 80.108 41.3723 90.7006 44.962 101.844" stroke="#8D731D" stroke-width="0.246269"/>
<path d="M54.2083 76.2045C55.704 80.108 57.798 90.7006 54.2083 101.844" stroke="#8D731D" stroke-width="0.246269"/>
<path d="M30.9567 85.0797H43.1944" stroke="#8D731D" stroke-width="0.246269"/>
<path d="M56.1119 84.9564H67.8057" stroke="#8D731D" stroke-width="0.246269"/>
<path d="M30.9567 92.4756H43.1944" stroke="#8D731D" stroke-width="0.246269"/>
<path d="M56.1119 92.3524H67.8057" stroke="#8D731D" stroke-width="0.246269"/>
<path d="M34.5198 208.251H35.8587L39.3451 217.219H37.8545L36.9072 214.781H33.4461L32.5114 217.219H31.0082L34.5198 208.251ZM36.6293 213.733L35.1893 209.805L33.6987 213.733H36.6293ZM40.7681 208.251L43.2439 212.71L45.7449 208.251H47.2986L43.9512 214.011V217.219H42.5365V213.986L39.2144 208.251H40.7681ZM52.1912 217.282C51.5428 217.282 50.9575 217.156 50.4354 216.903C49.9133 216.651 49.4628 216.31 49.0838 215.88C48.7049 215.442 48.4101 214.954 48.1996 214.415C47.9975 213.868 47.8964 213.308 47.8964 212.735C47.8964 212.137 48.0059 211.569 48.2249 211.03C48.4438 210.482 48.747 209.998 49.1343 209.577C49.5217 209.148 49.9764 208.811 50.4986 208.567C51.0291 208.314 51.6017 208.188 52.2164 208.188C52.8564 208.188 53.4375 208.318 53.9596 208.579C54.4901 208.84 54.9407 209.19 55.3112 209.628C55.6901 210.066 55.9807 210.554 56.1828 211.093C56.3933 211.632 56.4986 212.183 56.4986 212.748C56.4986 213.346 56.3891 213.918 56.1701 214.466C55.9596 215.005 55.6607 215.489 55.2733 215.918C54.8859 216.339 54.427 216.672 53.8964 216.916C53.3743 217.16 52.8059 217.282 52.1912 217.282ZM49.3364 212.735C49.3364 213.156 49.4038 213.565 49.5386 213.96C49.6733 214.356 49.8628 214.71 50.107 215.021C50.3596 215.325 50.6628 215.565 51.0164 215.741C51.3701 215.918 51.7659 216.007 52.2038 216.007C52.6586 216.007 53.0628 215.914 53.4164 215.729C53.7701 215.543 54.0649 215.295 54.3007 214.983C54.5449 214.663 54.7301 214.31 54.8564 213.922C54.9828 213.527 55.0459 213.131 55.0459 212.735C55.0459 212.314 54.9786 211.91 54.8438 211.522C54.7175 211.127 54.528 210.777 54.2754 210.474C54.0228 210.162 53.7196 209.918 53.3659 209.741C53.0207 209.565 52.6333 209.476 52.2038 209.476C51.7491 209.476 51.3449 209.569 50.9912 209.754C50.6375 209.939 50.3386 210.188 50.0943 210.499C49.8501 210.811 49.6607 211.16 49.5259 211.548C49.3996 211.935 49.3364 212.331 49.3364 212.735ZM66.1359 217.219V210.828L63.4959 215.678H62.6622L60.0095 210.828V217.219H58.5948V208.251H60.1106L63.079 213.733L66.0474 208.251H67.5632V217.219H66.1359ZM70.2173 217.219V208.251H71.6321V217.219H70.2173ZM74.2905 217.219V208.251H77.4737C78.4421 208.251 79.2505 208.453 79.8989 208.857C80.5474 209.253 81.0316 209.792 81.3516 210.474C81.68 211.148 81.8442 211.897 81.8442 212.722C81.8442 213.632 81.6632 214.423 81.3011 215.097C80.9474 215.771 80.4421 216.293 79.7853 216.663C79.1284 217.034 78.3579 217.219 77.4737 217.219H74.2905ZM80.4042 212.722C80.4042 212.091 80.2863 211.535 80.0505 211.055C79.8232 210.567 79.4905 210.188 79.0526 209.918C78.6232 209.64 78.0968 209.501 77.4737 209.501H75.7053V215.969H77.4737C78.1053 215.969 78.6358 215.826 79.0653 215.539C79.5032 215.253 79.8358 214.866 80.0632 214.377C80.2905 213.889 80.4042 213.337 80.4042 212.722ZM90.1156 215.969V217.219H83.964V208.251H90.0019V209.501H85.3788V212.053H89.383V213.228H85.3788V215.969H90.1156ZM98.1538 208.251H99.4928L102.979 217.219H101.489L100.541 214.781H97.0802L96.1454 217.219H94.6423L98.1538 208.251ZM100.263 213.733L98.8233 209.805L97.3328 213.733H100.263ZM104.72 217.219V208.263H106.135V212.874L110.353 208.251H111.92L108.383 212.217L112.122 217.219H110.518L107.486 213.114L106.135 214.516V217.219H104.72ZM113.69 217.219V208.251H115.105V217.219H113.69ZM119.178 210.878V217.219H117.763V208.251H118.925L124.003 214.731V208.263H125.431V217.219H124.193L119.178 210.878ZM128.078 217.219V208.251H129.493V215.969H134.306V217.219H128.078ZM142.238 215.969V217.219H136.087V208.251H142.124V209.501H137.501V212.053H141.506V213.228H137.501V215.969H142.238ZM144.986 208.251L147.462 212.71L149.963 208.251H151.517L148.169 214.011V217.219H146.754V213.986L143.432 208.251H144.986ZM159.414 215.969V217.219H153.263V208.251H159.3V209.501H154.677V212.053H158.682V213.228H154.677V215.969H159.414Z" fill="white"/>
<path d="M31.7569 25.9702V17.5102H34.8289C35.7969 17.5102 36.6129 17.6782 37.2769 18.0142C37.9489 18.3422 38.4569 18.8222 38.8009 19.4542C39.1449 20.0782 39.3169 20.8382 39.3169 21.7342C39.3169 22.6222 39.1449 23.3822 38.8009 24.0142C38.4569 24.6462 37.9489 25.1302 37.2769 25.4662C36.6129 25.8022 35.7969 25.9702 34.8289 25.9702H31.7569ZM33.3049 24.6862H34.7329C35.7569 24.6862 36.5169 24.4422 37.0129 23.9542C37.5089 23.4662 37.7569 22.7262 37.7569 21.7342C37.7569 20.7342 37.5089 19.9942 37.0129 19.5142C36.5169 19.0262 35.7569 18.7822 34.7329 18.7822H33.3049V24.6862ZM43.7055 26.0902C42.6895 26.0902 41.8935 25.8102 41.3175 25.2502C40.7415 24.6902 40.4535 23.9222 40.4535 22.9462C40.4535 22.3142 40.5775 21.7622 40.8255 21.2902C41.0735 20.8182 41.4175 20.4502 41.8575 20.1862C42.3055 19.9222 42.8255 19.7902 43.4175 19.7902C44.0015 19.7902 44.4895 19.9142 44.8815 20.1622C45.2735 20.4102 45.5695 20.7582 45.7695 21.2062C45.9775 21.6542 46.0815 22.1782 46.0815 22.7782V23.1742H41.6655V22.3822H45.0135L44.8095 22.5502C44.8095 21.9902 44.6895 21.5622 44.4495 21.2662C44.2175 20.9702 43.8775 20.8222 43.4295 20.8222C42.9335 20.8222 42.5495 20.9982 42.2775 21.3502C42.0135 21.7022 41.8815 22.1942 41.8815 22.8262V22.9822C41.8815 23.6382 42.0415 24.1302 42.3615 24.4582C42.6895 24.7782 43.1495 24.9382 43.7415 24.9382C44.0855 24.9382 44.4055 24.8942 44.7015 24.8062C45.0055 24.7102 45.2935 24.5582 45.5655 24.3502L46.0095 25.3582C45.7215 25.5902 45.3775 25.7702 44.9775 25.8982C44.5775 26.0262 44.1535 26.0902 43.7055 26.0902ZM50.8198 26.0902C50.3078 26.0902 49.8598 25.9662 49.4758 25.7182C49.0918 25.4622 48.8358 25.1182 48.7078 24.6862H48.8398V25.9702H47.3518V17.1382H48.8518V21.1462H48.7078C48.8438 20.7302 49.1038 20.4022 49.4878 20.1622C49.8718 19.9142 50.3158 19.7902 50.8198 19.7902C51.3558 19.7902 51.8238 19.9182 52.2238 20.1742C52.6238 20.4302 52.9358 20.7942 53.1598 21.2662C53.3838 21.7302 53.4958 22.2902 53.4958 22.9462C53.4958 23.6022 53.3838 24.1662 53.1598 24.6382C52.9358 25.1022 52.6198 25.4622 52.2118 25.7182C51.8118 25.9662 51.3478 26.0902 50.8198 26.0902ZM50.3998 24.9382C50.8718 24.9382 51.2518 24.7742 51.5398 24.4462C51.8358 24.1182 51.9838 23.6182 51.9838 22.9462C51.9838 22.2742 51.8358 21.7742 51.5398 21.4462C51.2518 21.1102 50.8718 20.9422 50.3998 20.9422C49.9278 20.9422 49.5478 21.1062 49.2598 21.4342C48.9718 21.7622 48.8278 22.2622 48.8278 22.9342C48.8278 23.6062 48.9718 24.1102 49.2598 24.4462C49.5478 24.7742 49.9278 24.9382 50.3998 24.9382ZM54.7932 25.9702V19.9102H56.2932V25.9702H54.7932ZM54.7092 18.7702V17.3062H56.3772V18.7702H54.7092ZM60.5141 26.0902C59.7941 26.0902 59.2501 25.9022 58.8821 25.5262C58.5141 25.1502 58.3301 24.5862 58.3301 23.8342V21.0382H57.1661V19.9102H58.3301V18.3622L59.8301 17.9782V19.9102H61.4501V21.0382H59.8301V23.7382C59.8301 24.1542 59.9101 24.4462 60.0701 24.6142C60.2301 24.7822 60.4501 24.8662 60.7301 24.8662C60.8821 24.8662 61.0101 24.8542 61.1141 24.8302C61.2261 24.8062 61.3341 24.7742 61.4381 24.7342V25.9222C61.3021 25.9782 61.1501 26.0182 60.9821 26.0422C60.8221 26.0742 60.6661 26.0902 60.5141 26.0902ZM62.5119 25.9702V24.3022H64.1919V25.9702H62.5119Z" fill="#FFFBFB"/>
<path d="M33.7732 170.441L31.9132 166.211H32.5852L34.1692 169.919H33.9532L35.5432 166.211H36.1852L34.3192 170.441H33.7732ZM35.8934 170.441L37.7774 166.211H38.3114L40.2254 170.441H39.5834L39.0614 169.241L39.3254 169.409H36.7634L37.0454 169.241L36.5234 170.441H35.8934ZM38.0354 166.895L37.1234 169.049L36.9794 168.911H39.1094L38.9894 169.049L38.0594 166.895H38.0354ZM40.7845 170.441V166.211H41.4085V169.907H43.4845V170.441H40.7845ZM44.095 170.441V166.211H44.719V170.441H44.095ZM45.7122 170.441V166.211H47.1762C47.6522 166.211 48.0542 166.293 48.3822 166.457C48.7142 166.621 48.9642 166.861 49.1322 167.177C49.3042 167.489 49.3902 167.871 49.3902 168.323C49.3902 168.771 49.3042 169.153 49.1322 169.469C48.9642 169.785 48.7142 170.027 48.3822 170.195C48.0542 170.359 47.6522 170.441 47.1762 170.441H45.7122ZM46.3362 169.919H47.1402C47.6842 169.919 48.0882 169.787 48.3522 169.523C48.6202 169.259 48.7542 168.859 48.7542 168.323C48.7542 167.787 48.6202 167.389 48.3522 167.129C48.0882 166.865 47.6842 166.733 47.1402 166.733H46.3362V169.919ZM33.4372 178.441V174.733H31.9912V174.211H35.5072V174.733H34.0612V178.441H33.4372ZM36.0911 178.441V174.211H36.7151V176.035H39.0911V174.211H39.7151V178.441H39.0911V176.557H36.7151V178.441H36.0911ZM40.7083 178.441V174.211H42.4963C42.9483 174.211 43.2983 174.319 43.5463 174.535C43.7943 174.747 43.9183 175.045 43.9183 175.429C43.9183 175.681 43.8623 175.897 43.7503 176.077C43.6383 176.257 43.4803 176.395 43.2763 176.491C43.0723 176.583 42.8323 176.629 42.5563 176.629L42.6523 176.533H42.8143C42.9783 176.533 43.1243 176.575 43.2523 176.659C43.3843 176.743 43.4923 176.877 43.5763 177.061L44.1823 178.441H43.4983L42.8983 177.055C42.8383 176.891 42.7443 176.785 42.6163 176.737C42.4923 176.689 42.3383 176.665 42.1543 176.665H41.3323V178.441H40.7083ZM41.3323 176.191H42.3943C42.6943 176.191 42.9203 176.127 43.0723 175.999C43.2283 175.871 43.3063 175.687 43.3063 175.447C43.3063 175.203 43.2283 175.019 43.0723 174.895C42.9203 174.771 42.6943 174.709 42.3943 174.709H41.3323V176.191ZM46.6079 178.495C46.0199 178.495 45.5819 178.347 45.2939 178.051C45.0099 177.755 44.8679 177.317 44.8679 176.737V174.211H45.4919V176.725C45.4919 177.133 45.5799 177.441 45.7559 177.649C45.9359 177.853 46.2199 177.955 46.6079 177.955C46.9759 177.955 47.2539 177.853 47.4419 177.649C47.6299 177.441 47.7239 177.133 47.7239 176.725V174.211H48.3359V176.737C48.3359 177.317 48.1899 177.755 47.8979 178.051C47.6059 178.347 47.1759 178.495 46.6079 178.495Z" fill="#FFFBFB"/>
<path d="M62.0764 176.441V175.397H64.0444V169.037H64.6684L62.2684 170.501V169.301L64.3924 167.981H65.2924V175.397H67.1404V176.441H62.0764ZM68.8277 176.441V175.517L71.7317 172.481C72.1077 172.089 72.3877 171.721 72.5717 171.377C72.7557 171.033 72.8477 170.677 72.8477 170.309C72.8477 169.853 72.7037 169.509 72.4157 169.277C72.1357 169.045 71.7277 168.929 71.1917 168.929C70.7677 168.929 70.3677 169.005 69.9917 169.157C69.6237 169.309 69.2677 169.541 68.9237 169.853L68.4917 168.905C68.8277 168.593 69.2437 168.345 69.7397 168.161C70.2437 167.969 70.7757 167.873 71.3357 167.873C72.2157 167.873 72.8917 168.073 73.3637 168.473C73.8437 168.873 74.0837 169.445 74.0837 170.189C74.0837 170.717 73.9557 171.225 73.6997 171.713C73.4437 172.193 73.0597 172.689 72.5477 173.201L70.0397 175.733V175.397H74.4317V176.441H68.8277ZM75.759 177.125H74.739L77.883 167.441H78.903L75.759 177.125ZM79.6207 176.441V175.517L82.5247 172.481C82.9007 172.089 83.1807 171.721 83.3647 171.377C83.5487 171.033 83.6407 170.677 83.6407 170.309C83.6407 169.853 83.4967 169.509 83.2087 169.277C82.9287 169.045 82.5207 168.929 81.9847 168.929C81.5607 168.929 81.1607 169.005 80.7847 169.157C80.4167 169.309 80.0607 169.541 79.7167 169.853L79.2847 168.905C79.6207 168.593 80.0367 168.345 80.5327 168.161C81.0367 167.969 81.5687 167.873 82.1287 167.873C83.0087 167.873 83.6847 168.073 84.1567 168.473C84.6367 168.873 84.8767 169.445 84.8767 170.189C84.8767 170.717 84.7487 171.225 84.4927 171.713C84.2367 172.193 83.8527 172.689 83.3407 173.201L80.8327 175.733V175.397H85.2247V176.441H79.6207ZM90.284 176.441V174.689H86.372V173.801L90.488 167.981H91.496V173.717H92.756V174.689H91.496V176.441H90.284ZM90.284 173.717V169.457H90.56L87.344 174.017V173.717H90.284Z" fill="#FFFBFB"/>
<g filter="url(#filter1_i_1543_26968)">
<circle cx="395.438" cy="156.961" r="124.706" fill="url(#paint4_linear_1543_26968)"/>
</g>
<path d="M39.464 134.334C38.728 134.334 38 134.254 37.28 134.094C36.56 133.934 35.888 133.71 35.264 133.422C34.64 133.118 34.096 132.758 33.632 132.342L34.496 130.446C35.264 131.038 36.048 131.486 36.848 131.79C37.664 132.078 38.52 132.222 39.416 132.222C40.552 132.222 41.44 131.926 42.08 131.334C42.736 130.742 43.064 129.95 43.064 128.958C43.064 127.934 42.752 127.11 42.128 126.486C41.52 125.846 40.672 125.526 39.584 125.526C38.832 125.526 38.144 125.678 37.52 125.982C36.912 126.286 36.376 126.75 35.912 127.374H34.184V117.198H44.432V119.286H36.56V125.382H35.936C36.368 124.774 36.944 124.302 37.664 123.966C38.4 123.63 39.224 123.462 40.136 123.462C41.224 123.462 42.168 123.686 42.968 124.134C43.768 124.582 44.384 125.206 44.816 126.006C45.264 126.806 45.488 127.75 45.488 128.838C45.488 129.926 45.24 130.886 44.744 131.718C44.264 132.534 43.568 133.174 42.656 133.638C41.76 134.102 40.696 134.334 39.464 134.334ZM54.6467 134.334C53.4947 134.334 52.3907 134.166 51.3347 133.83C50.2787 133.478 49.3987 132.982 48.6947 132.342L49.5587 130.446C50.3427 131.054 51.1427 131.502 51.9587 131.79C52.7747 132.078 53.6467 132.222 54.5747 132.222C55.7587 132.222 56.6547 131.974 57.2627 131.478C57.8867 130.982 58.1987 130.27 58.1987 129.342C58.1987 128.43 57.8867 127.742 57.2627 127.278C56.6547 126.798 55.7507 126.558 54.5507 126.558H51.9347V124.542H54.3587C55.3827 124.542 56.1987 124.286 56.8067 123.774C57.4147 123.246 57.7187 122.534 57.7187 121.638C57.7187 120.822 57.4387 120.198 56.8787 119.766C56.3187 119.318 55.5187 119.094 54.4787 119.094C52.7187 119.094 51.1747 119.71 49.8467 120.942L49.0067 119.046C49.6627 118.39 50.4947 117.886 51.5027 117.534C52.5107 117.166 53.5667 116.982 54.6707 116.982C56.3667 116.982 57.7027 117.374 58.6787 118.158C59.6547 118.926 60.1427 119.998 60.1427 121.374C60.1427 122.414 59.8467 123.302 59.2547 124.038C58.6787 124.774 57.8867 125.262 56.8787 125.502V125.238C58.0787 125.43 58.9987 125.91 59.6387 126.678C60.2947 127.43 60.6227 128.374 60.6227 129.51C60.6227 131.014 60.0867 132.198 59.0147 133.062C57.9587 133.91 56.5027 134.334 54.6467 134.334ZM70.6453 134.334C69.9093 134.334 69.1813 134.254 68.4613 134.094C67.7413 133.934 67.0693 133.71 66.4453 133.422C65.8213 133.118 65.2773 132.758 64.8133 132.342L65.6773 130.446C66.4453 131.038 67.2293 131.486 68.0293 131.79C68.8453 132.078 69.7013 132.222 70.5973 132.222C71.7333 132.222 72.6213 131.926 73.2613 131.334C73.9173 130.742 74.2453 129.95 74.2453 128.958C74.2453 127.934 73.9333 127.11 73.3093 126.486C72.7013 125.846 71.8533 125.526 70.7653 125.526C70.0133 125.526 69.3253 125.678 68.7013 125.982C68.0933 126.286 67.5573 126.75 67.0933 127.374H65.3653V117.198H75.6133V119.286H67.7413V125.382H67.1173C67.5493 124.774 68.1253 124.302 68.8453 123.966C69.5813 123.63 70.4053 123.462 71.3173 123.462C72.4053 123.462 73.3493 123.686 74.1493 124.134C74.9493 124.582 75.5653 125.206 75.9973 126.006C76.4453 126.806 76.6693 127.75 76.6693 128.838C76.6693 129.926 76.4213 130.886 75.9253 131.718C75.4453 132.534 74.7493 133.174 73.8373 133.638C72.9413 134.102 71.8773 134.334 70.6453 134.334ZM86.2359 134.334C85.4999 134.334 84.7719 134.254 84.0519 134.094C83.3319 133.934 82.6599 133.71 82.0359 133.422C81.4119 133.118 80.8679 132.758 80.4039 132.342L81.2679 130.446C82.0359 131.038 82.8199 131.486 83.6199 131.79C84.4359 132.078 85.2919 132.222 86.1879 132.222C87.3239 132.222 88.2119 131.926 88.8519 131.334C89.5079 130.742 89.8359 129.95 89.8359 128.958C89.8359 127.934 89.5239 127.11 88.8999 126.486C88.2919 125.846 87.4439 125.526 86.3559 125.526C85.6039 125.526 84.9159 125.678 84.2919 125.982C83.6839 126.286 83.1479 126.75 82.6839 127.374H80.9559V117.198H91.2039V119.286H83.3319V125.382H82.7079C83.1399 124.774 83.7159 124.302 84.4359 123.966C85.1719 123.63 85.9959 123.462 86.9079 123.462C87.9959 123.462 88.9399 123.686 89.7399 124.134C90.5399 124.582 91.1559 125.206 91.5879 126.006C92.0359 126.806 92.2599 127.75 92.2599 128.838C92.2599 129.926 92.0119 130.886 91.5159 131.718C91.0359 132.534 90.3399 133.174 89.4279 133.638C88.5319 134.102 87.4679 134.334 86.2359 134.334ZM124.382 134.334C122.43 134.334 120.926 133.59 119.87 132.102C118.83 130.598 118.31 128.446 118.31 125.646C118.31 122.798 118.83 120.646 119.87 119.19C120.926 117.718 122.43 116.982 124.382 116.982C126.35 116.982 127.854 117.718 128.894 119.19C129.934 120.646 130.454 122.79 130.454 125.622C130.454 128.438 129.926 130.598 128.87 132.102C127.83 133.59 126.334 134.334 124.382 134.334ZM124.382 132.246C125.614 132.246 126.526 131.71 127.118 130.638C127.726 129.566 128.03 127.894 128.03 125.622C128.03 123.334 127.726 121.67 127.118 120.63C126.526 119.574 125.614 119.046 124.382 119.046C123.166 119.046 122.254 119.574 121.646 120.63C121.038 121.67 120.734 123.326 120.734 125.598C120.734 127.886 121.038 129.566 121.646 130.638C122.27 131.71 123.182 132.246 124.382 132.246ZM139.804 134.334C138.652 134.334 137.548 134.166 136.492 133.83C135.436 133.478 134.556 132.982 133.852 132.342L134.716 130.446C135.5 131.054 136.3 131.502 137.116 131.79C137.932 132.078 138.804 132.222 139.732 132.222C140.916 132.222 141.812 131.974 142.42 131.478C143.044 130.982 143.356 130.27 143.356 129.342C143.356 128.43 143.044 127.742 142.42 127.278C141.812 126.798 140.908 126.558 139.708 126.558H137.092V124.542H139.516C140.54 124.542 141.356 124.286 141.964 123.774C142.572 123.246 142.876 122.534 142.876 121.638C142.876 120.822 142.596 120.198 142.036 119.766C141.476 119.318 140.676 119.094 139.636 119.094C137.876 119.094 136.332 119.71 135.004 120.942L134.164 119.046C134.82 118.39 135.652 117.886 136.66 117.534C137.668 117.166 138.724 116.982 139.828 116.982C141.524 116.982 142.86 117.374 143.836 118.158C144.812 118.926 145.3 119.998 145.3 121.374C145.3 122.414 145.004 123.302 144.412 124.038C143.836 124.774 143.044 125.262 142.036 125.502V125.238C143.236 125.43 144.156 125.91 144.796 126.678C145.452 127.43 145.78 128.374 145.78 129.51C145.78 131.014 145.244 132.198 144.172 133.062C143.116 133.91 141.66 134.334 139.804 134.334ZM157.291 134.118V130.614H149.467V128.838L157.699 117.198H159.715V128.67H162.235V130.614H159.715V134.118H157.291ZM157.291 128.67V120.15H157.843L151.411 129.27V128.67H157.291ZM171.154 134.334C169.202 134.334 167.682 133.918 166.594 133.086C165.506 132.254 164.962 131.094 164.962 129.606C164.962 128.422 165.322 127.446 166.042 126.678C166.762 125.894 167.706 125.422 168.874 125.262V125.694C167.818 125.47 166.97 124.982 166.33 124.23C165.706 123.478 165.394 122.566 165.394 121.494C165.394 120.086 165.906 118.982 166.93 118.182C167.954 117.382 169.362 116.982 171.154 116.982C172.962 116.982 174.378 117.382 175.402 118.182C176.426 118.982 176.938 120.086 176.938 121.494C176.938 122.566 176.634 123.486 176.026 124.254C175.434 125.006 174.618 125.478 173.578 125.67V125.262C174.73 125.422 175.65 125.894 176.338 126.678C177.026 127.446 177.37 128.422 177.37 129.606C177.37 131.094 176.826 132.254 175.738 133.086C174.65 133.918 173.122 134.334 171.154 134.334ZM171.154 132.366C172.45 132.366 173.418 132.126 174.058 131.646C174.698 131.15 175.018 130.414 175.018 129.438C175.018 128.462 174.698 127.734 174.058 127.254C173.418 126.774 172.45 126.534 171.154 126.534C169.858 126.534 168.89 126.774 168.25 127.254C167.61 127.734 167.29 128.462 167.29 129.438C167.29 130.414 167.61 131.15 168.25 131.646C168.906 132.126 169.874 132.366 171.154 132.366ZM171.154 124.566C172.274 124.566 173.122 124.318 173.698 123.822C174.29 123.31 174.586 122.614 174.586 121.734C174.586 120.87 174.29 120.19 173.698 119.694C173.122 119.198 172.274 118.95 171.154 118.95C170.05 118.95 169.202 119.198 168.61 119.694C168.018 120.19 167.722 120.87 167.722 121.734C167.722 122.614 168.018 123.31 168.61 123.822C169.202 124.318 170.05 124.566 171.154 124.566ZM209.78 134.334C209.044 134.334 208.316 134.254 207.596 134.094C206.876 133.934 206.204 133.71 205.58 133.422C204.956 133.118 204.412 132.758 203.948 132.342L204.812 130.446C205.58 131.038 206.364 131.486 207.164 131.79C207.98 132.078 208.836 132.222 209.732 132.222C210.868 132.222 211.756 131.926 212.396 131.334C213.052 130.742 213.38 129.95 213.38 128.958C213.38 127.934 213.068 127.11 212.444 126.486C211.836 125.846 210.988 125.526 209.9 125.526C209.148 125.526 208.46 125.678 207.836 125.982C207.228 126.286 206.692 126.75 206.228 127.374H204.5V117.198H214.748V119.286H206.876V125.382H206.252C206.684 124.774 207.26 124.302 207.98 123.966C208.716 123.63 209.54 123.462 210.452 123.462C211.54 123.462 212.484 123.686 213.284 124.134C214.084 124.582 214.7 125.206 215.132 126.006C215.58 126.806 215.804 127.75 215.804 128.838C215.804 129.926 215.556 130.886 215.06 131.718C214.58 132.534 213.884 133.174 212.972 133.638C212.076 134.102 211.012 134.334 209.78 134.334ZM223.93 134.334C223.034 134.334 222.138 134.158 221.242 133.806C220.346 133.438 219.594 132.958 218.986 132.366L219.874 130.47C220.466 131.046 221.114 131.486 221.818 131.79C222.522 132.078 223.234 132.222 223.954 132.222C225.49 132.222 226.666 131.686 227.482 130.614C228.314 129.526 228.73 127.91 228.73 125.766V123.726H228.97C228.874 124.574 228.602 125.318 228.154 125.958C227.706 126.598 227.138 127.086 226.45 127.422C225.778 127.758 225.018 127.926 224.17 127.926C223.178 127.926 222.282 127.694 221.482 127.23C220.698 126.766 220.082 126.126 219.634 125.31C219.202 124.494 218.986 123.574 218.986 122.55C218.986 121.462 219.226 120.502 219.706 119.67C220.186 118.822 220.842 118.166 221.674 117.702C222.506 117.222 223.466 116.982 224.554 116.982C226.666 116.982 228.282 117.71 229.402 119.166C230.538 120.606 231.106 122.646 231.106 125.286C231.106 127.222 230.818 128.862 230.242 130.206C229.682 131.55 228.866 132.574 227.794 133.278C226.722 133.982 225.434 134.334 223.93 134.334ZM224.722 125.886C225.394 125.886 225.986 125.742 226.498 125.454C227.01 125.166 227.41 124.766 227.698 124.254C227.986 123.726 228.13 123.126 228.13 122.454C228.13 121.766 227.986 121.166 227.698 120.654C227.41 120.126 227.01 119.718 226.498 119.43C225.986 119.126 225.394 118.974 224.722 118.974C224.05 118.974 223.458 119.126 222.946 119.43C222.45 119.718 222.058 120.126 221.77 120.654C221.482 121.166 221.338 121.766 221.338 122.454C221.338 123.126 221.482 123.726 221.77 124.254C222.058 124.766 222.45 125.166 222.946 125.454C223.458 125.742 224.05 125.886 224.722 125.886ZM242.449 134.118V130.614H234.625V128.838L242.857 117.198H244.873V128.67H247.393V130.614H244.873V134.118H242.449ZM242.449 128.67V120.15H243.001L236.569 129.27V128.67H242.449ZM256.552 134.334C255.816 134.334 255.088 134.254 254.368 134.094C253.648 133.934 252.976 133.71 252.352 133.422C251.728 133.118 251.184 132.758 250.72 132.342L251.584 130.446C252.352 131.038 253.136 131.486 253.936 131.79C254.752 132.078 255.608 132.222 256.504 132.222C257.64 132.222 258.528 131.926 259.168 131.334C259.824 130.742 260.152 129.95 260.152 128.958C260.152 127.934 259.84 127.11 259.216 126.486C258.608 125.846 257.76 125.526 256.672 125.526C255.92 125.526 255.232 125.678 254.608 125.982C254 126.286 253.464 126.75 253 127.374H251.272V117.198H261.52V119.286H253.648V125.382H253.024C253.456 124.774 254.032 124.302 254.752 123.966C255.488 123.63 256.312 123.462 257.224 123.462C258.312 123.462 259.256 123.686 260.056 124.134C260.856 124.582 261.472 125.206 261.904 126.006C262.352 126.806 262.576 127.75 262.576 128.838C262.576 129.926 262.328 130.886 261.832 131.718C261.352 132.534 260.656 133.174 259.744 133.638C258.848 134.102 257.784 134.334 256.552 134.334ZM294.937 134.334C294.201 134.334 293.473 134.254 292.753 134.094C292.033 133.934 291.361 133.71 290.737 133.422C290.113 133.118 289.569 132.758 289.105 132.342L289.969 130.446C290.737 131.038 291.521 131.486 292.321 131.79C293.137 132.078 293.993 132.222 294.889 132.222C296.025 132.222 296.913 131.926 297.553 131.334C298.209 130.742 298.537 129.95 298.537 128.958C298.537 127.934 298.225 127.11 297.601 126.486C296.993 125.846 296.145 125.526 295.057 125.526C294.305 125.526 293.617 125.678 292.993 125.982C292.385 126.286 291.849 126.75 291.385 127.374H289.657V117.198H299.905V119.286H292.033V125.382H291.409C291.841 124.774 292.417 124.302 293.137 123.966C293.873 123.63 294.697 123.462 295.609 123.462C296.697 123.462 297.641 123.686 298.441 124.134C299.241 124.582 299.857 125.206 300.289 126.006C300.737 126.806 300.961 127.75 300.961 128.838C300.961 129.926 300.713 130.886 300.217 131.718C299.737 132.534 299.041 133.174 298.129 133.638C297.233 134.102 296.169 134.334 294.937 134.334ZM310.288 134.334C308.336 134.334 306.832 133.59 305.776 132.102C304.736 130.598 304.216 128.446 304.216 125.646C304.216 122.798 304.736 120.646 305.776 119.19C306.832 117.718 308.336 116.982 310.288 116.982C312.256 116.982 313.76 117.718 314.8 119.19C315.84 120.646 316.36 122.79 316.36 125.622C316.36 128.438 315.832 130.598 314.776 132.102C313.736 133.59 312.24 134.334 310.288 134.334ZM310.288 132.246C311.52 132.246 312.432 131.71 313.024 130.638C313.632 129.566 313.936 127.894 313.936 125.622C313.936 123.334 313.632 121.67 313.024 120.63C312.432 119.574 311.52 119.046 310.288 119.046C309.072 119.046 308.16 119.574 307.552 120.63C306.944 121.67 306.64 123.326 306.64 125.598C306.64 127.886 306.944 129.566 307.552 130.638C308.176 131.71 309.088 132.246 310.288 132.246ZM327.607 134.118V130.614H319.783V128.838L328.015 117.198H330.031V128.67H332.551V130.614H330.031V134.118H327.607ZM327.607 128.67V120.15H328.159L321.727 129.27V128.67H327.607ZM341.709 134.334C340.973 134.334 340.245 134.254 339.525 134.094C338.805 133.934 338.133 133.71 337.509 133.422C336.885 133.118 336.341 132.758 335.877 132.342L336.741 130.446C337.509 131.038 338.293 131.486 339.093 131.79C339.909 132.078 340.765 132.222 341.661 132.222C342.797 132.222 343.685 131.926 344.325 131.334C344.981 130.742 345.309 129.95 345.309 128.958C345.309 127.934 344.997 127.11 344.373 126.486C343.765 125.846 342.917 125.526 341.829 125.526C341.077 125.526 340.389 125.678 339.765 125.982C339.157 126.286 338.621 126.75 338.157 127.374H336.429V117.198H346.677V119.286H338.805V125.382H338.181C338.613 124.774 339.189 124.302 339.909 123.966C340.645 123.63 341.469 123.462 342.381 123.462C343.469 123.462 344.413 123.686 345.213 124.134C346.013 124.582 346.629 125.206 347.061 126.006C347.509 126.806 347.733 127.75 347.733 128.838C347.733 129.926 347.485 130.886 346.989 131.718C346.509 132.534 345.813 133.174 344.901 133.638C344.005 134.102 342.941 134.334 341.709 134.334Z" fill="white"/>
<path d="M341.916 22.934C344.116 22.934 345.799 23.4217 346.965 24.3971C348.151 25.3725 348.744 26.7496 348.744 28.5283C348.744 30.2687 348.352 31.7988 347.568 33.1184C346.784 34.4381 345.665 35.4614 344.211 36.1881C342.758 36.9149 341.046 37.2783 339.076 37.2783H335.088L333.941 43.0161H329.379L333.395 22.934H341.916ZM339.592 33.4914C341.084 33.4914 342.241 33.128 343.064 32.4012C343.905 31.6745 344.326 30.6512 344.326 29.3315C344.326 28.4709 344.029 27.8206 343.437 27.3807C342.863 26.9217 342.04 26.6922 340.969 26.6922H337.182L335.834 33.4914H339.592ZM355.497 43.1882C354.293 43.1882 353.221 42.9013 352.284 42.3275C351.366 41.7537 350.649 40.9505 350.133 39.9177C349.616 38.8849 349.358 37.6991 349.358 36.3603C349.358 34.6963 349.712 33.1854 350.42 31.8275C351.146 30.4504 352.141 29.3698 353.403 28.5856C354.665 27.8015 356.062 27.4094 357.592 27.4094C358.816 27.4094 359.849 27.6676 360.69 28.184C361.532 28.6813 362.172 29.4176 362.612 30.393L363.157 27.5815H367.547L364.477 43.0161H360.088L360.518 41.0652C359.103 42.4805 357.429 43.1882 355.497 43.1882ZM357.161 39.7169C357.965 39.7169 358.711 39.4969 359.399 39.057C360.088 38.6171 360.633 38.0242 361.034 37.2783C361.436 36.5133 361.637 35.6813 361.637 34.7824C361.637 33.6922 361.331 32.822 360.719 32.1717C360.107 31.5214 359.294 31.1963 358.28 31.1963C357.477 31.1963 356.731 31.4163 356.043 31.8561C355.354 32.296 354.809 32.8985 354.407 33.6635C354.006 34.4094 353.805 35.2223 353.805 36.1021C353.805 37.2114 354.111 38.0912 354.723 38.7414C355.335 39.3917 356.148 39.7169 357.161 39.7169ZM386.068 27.5815L375.826 44.8808C375.061 46.2387 374.162 47.2237 373.129 47.8358C372.116 48.4669 370.949 48.7825 369.629 48.7825C368.788 48.7825 368.051 48.6486 367.42 48.3808C366.789 48.1131 366.168 47.7114 365.556 47.1759L367.822 44.221C368.319 44.6991 368.893 44.9382 369.543 44.9382C370.48 44.9382 371.341 44.4601 372.125 43.5038L372.728 42.7005L369.4 27.5815H373.875L375.74 38.3398L381.564 27.5815H386.068Z" fill="#FFF8EB"/>
<path d="M393.725 21.5733H393.238V21.3421H394.486V21.5733H393.999V22.8138H393.725V21.5733ZM396.043 22.8138L396.041 21.8382L395.558 22.6456H395.436L394.952 21.8509V22.8138H394.692V21.3421H394.916L395.501 22.3176L396.075 21.3421H396.3L396.302 22.8138H396.043Z" fill="#FFF8EB"/>
<path d="M330.018 22.9185H325.144L311.292 36.0857L310.868 36.4901L310.302 39.7343H312.638L316.41 36.0857H316.219L324.342 28.3645L324.333 28.4207L330.018 22.9185Z" fill="#0729A2"/>
<path d="M326.733 39.7343L325.951 43.7355H321.651L322.353 39.7343H326.733Z" fill="#FEC148"/>
<path d="M330.018 22.9185L330.006 22.9769L327.446 36.0857H322.99L324.33 28.4229L330.018 22.9185Z" fill="url(#paint5_linear_1543_26968)"/>
<path d="M320.63 36.0856L319.993 39.7343H312.638L316.407 36.0856H320.63Z" fill="url(#paint6_linear_1543_26968)"/>
<g clip-path="url(#clip1_1543_26968)">
<path d="M227.415 22.3777C229.601 25.8104 230.752 29.7043 230.752 33.668C230.752 37.6317 229.601 41.5256 227.415 44.9583M221.935 24.8616C223.64 27.5391 224.538 30.5763 224.538 33.668C224.538 36.7597 223.64 39.7969 221.935 42.4744M216.704 27.1422C217.937 29.0989 218.587 31.3184 218.587 33.5777C218.587 35.837 217.937 38.0565 216.704 40.0131M211.474 29.6035C212.362 30.8227 212.833 32.2309 212.833 33.668C212.833 35.1051 212.362 36.5133 211.474 37.7325" stroke="white" stroke-width="2.70677" stroke-linecap="round"/>
</g>
<ellipse cx="360.155" cy="192.788" rx="16.923" ry="16.7642" fill="#F79E1B"/>
<ellipse cx="339.001" cy="192.788" rx="16.923" ry="16.7642" fill="url(#paint7_radial_1543_26968)"/>
<path d="M328.288 218.552V215.379C328.288 215.206 328.283 215.03 328.272 214.851C328.26 214.673 328.244 214.497 328.221 214.324H329.235L329.318 215.161H329.218C329.335 214.871 329.514 214.645 329.754 214.483C329.999 214.321 330.29 214.24 330.624 214.24C330.959 214.24 331.236 214.321 331.453 214.483C331.677 214.639 331.833 214.885 331.922 215.22H331.788C331.906 214.918 332.098 214.681 332.366 214.508C332.634 214.329 332.941 214.24 333.287 214.24C333.762 214.24 334.116 214.38 334.351 214.659C334.585 214.938 334.702 215.373 334.702 215.965V218.552H333.656V216.007C333.656 215.672 333.6 215.432 333.488 215.287C333.376 215.136 333.198 215.061 332.952 215.061C332.662 215.061 332.433 215.164 332.266 215.37C332.098 215.571 332.014 215.845 332.014 216.191V218.552H330.968V216.007C330.968 215.672 330.912 215.432 330.8 215.287C330.689 215.136 330.51 215.061 330.264 215.061C329.974 215.061 329.745 215.164 329.578 215.37C329.416 215.571 329.335 215.845 329.335 216.191V218.552H328.288ZM337.452 218.636C337.084 218.636 336.76 218.549 336.481 218.376C336.202 218.198 335.984 217.944 335.828 217.614C335.671 217.285 335.593 216.892 335.593 216.434C335.593 215.976 335.671 215.585 335.828 215.262C335.984 214.932 336.202 214.681 336.481 214.508C336.76 214.329 337.084 214.24 337.452 214.24C337.809 214.24 338.122 214.329 338.39 214.508C338.663 214.681 338.845 214.916 338.934 215.211H338.842L338.934 214.324H339.939C339.922 214.497 339.905 214.673 339.889 214.851C339.877 215.03 339.872 215.206 339.872 215.379V218.552H338.834L338.825 217.681H338.926C338.836 217.972 338.655 218.203 338.381 218.376C338.108 218.549 337.798 218.636 337.452 218.636ZM337.745 217.832C338.074 217.832 338.34 217.718 338.541 217.489C338.742 217.254 338.842 216.903 338.842 216.434C338.842 215.965 338.742 215.616 338.541 215.387C338.34 215.158 338.074 215.044 337.745 215.044C337.416 215.044 337.151 215.158 336.95 215.387C336.749 215.616 336.648 215.965 336.648 216.434C336.648 216.903 336.746 217.254 336.941 217.489C337.142 217.718 337.41 217.832 337.745 217.832ZM342.519 218.636C342.156 218.636 341.821 218.594 341.514 218.51C341.213 218.421 340.959 218.298 340.752 218.142L341.045 217.439C341.257 217.584 341.492 217.695 341.748 217.774C342.005 217.852 342.265 217.891 342.527 217.891C342.806 217.891 343.013 217.843 343.147 217.748C343.286 217.654 343.356 217.525 343.356 217.363C343.356 217.235 343.311 217.134 343.222 217.062C343.138 216.984 343.002 216.925 342.812 216.886L341.975 216.727C341.617 216.649 341.344 216.515 341.154 216.325C340.97 216.135 340.878 215.887 340.878 215.58C340.878 215.317 340.947 215.086 341.087 214.885C341.232 214.684 341.436 214.528 341.698 214.416C341.966 214.299 342.279 214.24 342.636 214.24C342.949 214.24 343.242 214.282 343.515 214.366C343.794 214.449 344.029 214.575 344.219 214.742L343.917 215.421C343.744 215.281 343.546 215.172 343.323 215.094C343.099 215.016 342.882 214.977 342.669 214.977C342.379 214.977 342.167 215.03 342.033 215.136C341.899 215.236 341.832 215.368 341.832 215.53C341.832 215.652 341.871 215.756 341.949 215.839C342.033 215.917 342.162 215.976 342.335 216.015L343.172 216.174C343.546 216.247 343.828 216.375 344.018 216.559C344.213 216.738 344.311 216.984 344.311 217.296C344.311 217.575 344.235 217.815 344.085 218.016C343.934 218.217 343.725 218.371 343.457 218.477C343.189 218.583 342.876 218.636 342.519 218.636ZM346.974 218.636C346.472 218.636 346.092 218.505 345.835 218.242C345.579 217.98 345.45 217.587 345.45 217.062V215.111H344.638V214.324H345.45V213.244L346.497 212.976V214.324H347.627V215.111H346.497V216.995C346.497 217.285 346.553 217.489 346.664 217.606C346.776 217.723 346.929 217.782 347.125 217.782C347.231 217.782 347.32 217.774 347.393 217.757C347.471 217.74 347.546 217.718 347.619 217.69V218.519C347.524 218.558 347.418 218.586 347.301 218.602C347.189 218.625 347.08 218.636 346.974 218.636ZM350.34 218.636C349.631 218.636 349.076 218.441 348.674 218.05C348.272 217.659 348.071 217.123 348.071 216.442C348.071 216.001 348.158 215.616 348.331 215.287C348.504 214.957 348.744 214.701 349.051 214.516C349.363 214.332 349.726 214.24 350.139 214.24C350.547 214.24 350.887 214.327 351.161 214.5C351.434 214.673 351.641 214.916 351.78 215.228C351.926 215.541 351.998 215.906 351.998 216.325V216.601H348.917V216.049H351.253L351.111 216.166C351.111 215.775 351.027 215.477 350.859 215.27C350.698 215.063 350.46 214.96 350.148 214.96C349.802 214.96 349.534 215.083 349.344 215.329C349.16 215.574 349.068 215.917 349.068 216.358V216.467C349.068 216.925 349.179 217.268 349.402 217.497C349.631 217.721 349.952 217.832 350.365 217.832C350.605 217.832 350.829 217.801 351.035 217.74C351.247 217.673 351.448 217.567 351.638 217.422L351.948 218.125C351.747 218.287 351.507 218.413 351.228 218.502C350.949 218.591 350.653 218.636 350.34 218.636ZM352.876 218.552V215.404C352.876 215.225 352.87 215.044 352.859 214.86C352.854 214.675 352.84 214.497 352.817 214.324H353.831L353.948 215.479H353.78C353.836 215.2 353.928 214.969 354.057 214.784C354.191 214.6 354.353 214.463 354.542 214.374C354.732 214.285 354.939 214.24 355.162 214.24C355.262 214.24 355.343 214.246 355.405 214.257C355.466 214.262 355.528 214.276 355.589 214.299L355.581 215.22C355.475 215.175 355.382 215.147 355.304 215.136C355.232 215.125 355.14 215.119 355.028 215.119C354.788 215.119 354.584 215.169 354.417 215.27C354.255 215.37 354.132 215.51 354.048 215.689C353.97 215.867 353.931 216.071 353.931 216.3V218.552H352.876ZM358.049 218.636C357.613 218.636 357.231 218.547 356.902 218.368C356.578 218.189 356.327 217.935 356.148 217.606C355.969 217.271 355.88 216.875 355.88 216.417C355.88 215.959 355.969 215.569 356.148 215.245C356.332 214.921 356.586 214.673 356.91 214.5C357.234 214.327 357.613 214.24 358.049 214.24C358.328 214.24 358.599 214.285 358.861 214.374C359.129 214.458 359.347 214.581 359.514 214.742L359.196 215.471C359.045 215.331 358.875 215.228 358.685 215.161C358.501 215.089 358.319 215.052 358.141 215.052C357.767 215.052 357.474 215.169 357.262 215.404C357.055 215.638 356.952 215.979 356.952 216.425C356.952 216.872 357.055 217.215 357.262 217.455C357.474 217.695 357.767 217.815 358.141 217.815C358.314 217.815 358.492 217.782 358.677 217.715C358.866 217.648 359.04 217.545 359.196 217.405L359.514 218.125C359.341 218.287 359.12 218.413 358.853 218.502C358.59 218.591 358.322 218.636 358.049 218.636ZM361.934 218.636C361.565 218.636 361.241 218.549 360.962 218.376C360.683 218.198 360.466 217.944 360.309 217.614C360.153 217.285 360.075 216.892 360.075 216.434C360.075 215.976 360.153 215.585 360.309 215.262C360.466 214.932 360.683 214.681 360.962 214.508C361.241 214.329 361.565 214.24 361.934 214.24C362.291 214.24 362.603 214.329 362.871 214.508C363.145 214.681 363.326 214.916 363.416 215.211H363.324L363.416 214.324H364.42C364.404 214.497 364.387 214.673 364.37 214.851C364.359 215.03 364.353 215.206 364.353 215.379V218.552H363.315L363.307 217.681H363.407C363.318 217.972 363.137 218.203 362.863 218.376C362.59 218.549 362.28 218.636 361.934 218.636ZM362.227 217.832C362.556 217.832 362.821 217.718 363.022 217.489C363.223 217.254 363.324 216.903 363.324 216.434C363.324 215.965 363.223 215.616 363.022 215.387C362.821 215.158 362.556 215.044 362.227 215.044C361.897 215.044 361.632 215.158 361.431 215.387C361.23 215.616 361.13 215.965 361.13 216.434C361.13 216.903 361.228 217.254 361.423 217.489C361.624 217.718 361.892 217.832 362.227 217.832ZM365.485 218.552V215.404C365.485 215.225 365.479 215.044 365.468 214.86C365.463 214.675 365.449 214.497 365.426 214.324H366.439L366.557 215.479H366.389C366.445 215.2 366.537 214.969 366.665 214.784C366.799 214.6 366.961 214.463 367.151 214.374C367.341 214.285 367.547 214.24 367.771 214.24C367.871 214.24 367.952 214.246 368.014 214.257C368.075 214.262 368.136 214.276 368.198 214.299L368.189 215.22C368.083 215.175 367.991 215.147 367.913 215.136C367.84 215.125 367.748 215.119 367.637 215.119C367.397 215.119 367.193 215.169 367.025 215.27C366.864 215.37 366.741 215.51 366.657 215.689C366.579 215.867 366.54 216.071 366.54 216.3V218.552H365.485ZM370.356 218.636C369.988 218.636 369.661 218.549 369.376 218.376C369.097 218.198 368.88 217.944 368.723 217.614C368.567 217.285 368.489 216.892 368.489 216.434C368.489 215.976 368.567 215.585 368.723 215.262C368.88 214.932 369.097 214.681 369.376 214.508C369.661 214.329 369.988 214.24 370.356 214.24C370.708 214.24 371.018 214.327 371.285 214.5C371.559 214.667 371.74 214.896 371.83 215.186H371.721V212.39H372.768V218.552H371.738V217.656H371.838C371.749 217.958 371.567 218.198 371.294 218.376C371.026 218.549 370.713 218.636 370.356 218.636ZM370.649 217.832C370.978 217.832 371.244 217.718 371.445 217.489C371.646 217.254 371.746 216.903 371.746 216.434C371.746 215.965 371.646 215.616 371.445 215.387C371.244 215.158 370.978 215.044 370.649 215.044C370.32 215.044 370.052 215.158 369.845 215.387C369.644 215.616 369.544 215.965 369.544 216.434C369.544 216.903 369.644 217.254 369.845 217.489C370.052 217.718 370.32 217.832 370.649 217.832Z" fill="white"/>
</g>
<defs>
<filter id="filter0_b_1543_26968" x="-17.444" y="-17.444" width="447.888" height="268.888" filterUnits="userSpaceOnUse" color-interpolation-filters="sRGB">
<feFlood flood-opacity="0" result="BackgroundImageFix"/>
<feGaussianBlur in="BackgroundImageFix" stdDeviation="8.72201"/>
<feComposite in2="SourceAlpha" operator="in" result="effect1_backgroundBlur_1543_26968"/>
<feBlend mode="normal" in="SourceGraphic" in2="effect1_backgroundBlur_1543_26968" result="shape"/>
</filter>
<filter id="filter1_i_1543_26968" x="270.731" y="32.2543" width="251.527" height="250.822" filterUnits="userSpaceOnUse" color-interpolation-filters="sRGB">
<feFlood flood-opacity="0" result="BackgroundImageFix"/>
<feBlend mode="normal" in="SourceGraphic" in2="BackgroundImageFix" result="shape"/>
<feColorMatrix in="SourceAlpha" type="matrix" values="0 0 0 0 0 0 0 0 0 0 0 0 0 0 0 0 0 0 127 0" result="hardAlpha"/>
<feOffset dx="2.11367" dy="1.40911"/>
<feGaussianBlur stdDeviation="19"/>
<feComposite in2="hardAlpha" operator="arithmetic" k2="-1" k3="1"/>
<feColorMatrix type="matrix" values="0 0 0 0 1 0 0 0 0 1 0 0 0 0 1 0 0 0 1 0"/>
<feBlend mode="normal" in2="shape" result="effect1_innerShadow_1543_26968"/>
</filter>
<linearGradient id="paint0_linear_1543_26968" x1="0" y1="117" x2="413" y2="117" gradientUnits="userSpaceOnUse">
<stop stop-color="#0061FF"/>
<stop offset="1" stop-color="#60EFFF"/>
</linearGradient>
<radialGradient id="paint1_radial_1543_26968" cx="0" cy="0" r="1" gradientUnits="userSpaceOnUse" gradientTransform="translate(413 234) rotate(-150.735) scale(467.242 712.832)">
<stop stop-color="white" stop-opacity="0.55"/>
<stop offset="1" stop-color="white" stop-opacity="0"/>
</radialGradient>
<radialGradient id="paint2_radial_1543_26968" cx="0" cy="0" r="1" gradientUnits="userSpaceOnUse" gradientTransform="translate(-3.3824e-07 4.19106) rotate(29.0932) scale(472.632 720.676)">
<stop stop-color="white" stop-opacity="0.27"/>
</radialGradient>
<linearGradient id="paint3_linear_1543_26968" x1="67.361" y1="76.1149" x2="33.714" y2="105.358" gradientUnits="userSpaceOnUse">
<stop stop-color="#E7BD61"/>
<stop offset="0.495738" stop-color="#FEE9BA"/>
<stop offset="1" stop-color="#E7BD61"/>
</linearGradient>
<linearGradient id="paint4_linear_1543_26968" x1="270.731" y1="156.961" x2="520.144" y2="156.961" gradientUnits="userSpaceOnUse">
<stop stop-color="#0061FF"/>
<stop offset="1" stop-color="#60EFFF"/>
</linearGradient>
<linearGradient id="paint5_linear_1543_26968" x1="325.645" y1="37.3686" x2="327.682" y2="14.6519" gradientUnits="userSpaceOnUse">
<stop offset="0.00916586" stop-color="#0729A2"/>
<stop offset="0.5855" stop-color="#071555"/>
</linearGradient>
<linearGradient id="paint6_linear_1543_26968" x1="332.755" y1="39.4448" x2="296.682" y2="35.2658" gradientUnits="userSpaceOnUse">
<stop offset="0.1293" stop-color="#0729A2"/>
<stop offset="0.2141" stop-color="#07289E"/>
<stop offset="0.2921" stop-color="#072593"/>
<stop offset="0.3674" stop-color="#072081"/>
<stop offset="0.4406" stop-color="#071A67"/>
<stop offset="0.4804" stop-color="#071555"/>
</linearGradient>
<radialGradient id="paint7_radial_1543_26968" cx="0" cy="0" r="1" gradientUnits="userSpaceOnUse" gradientTransform="translate(355.924 192.788) rotate(-180) scale(22.9166 22.7015)">
<stop stop-color="#EB001B" stop-opacity="0.92"/>
<stop offset="0.110299" stop-color="#EB001B" stop-opacity="0.803455"/>
<stop offset="1" stop-color="#EB001B"/>
</radialGradient>
<clipPath id="clip0_1543_26968">
<rect width="413" height="234" rx="16" fill="white"/>
</clipPath>
<clipPath id="clip1_1543_26968">
<rect width="23.248" height="25.2902" fill="white" transform="translate(209.813 21.0225)"/>
</clipPath>
</defs>
</svg>
