<svg width="27" height="26" viewBox="0 0 27 26" fill="none" xmlns="http://www.w3.org/2000/svg">
<g clip-path="url(#clip0_4416_2464)">
<path d="M13.667 0C11.0958 0 8.58242 0.762437 6.44458 2.1909C4.30674 3.61935 2.6405 5.64968 1.65656 8.02512C0.672625 10.4006 0.415181 13.0144 0.916789 15.5362C1.4184 18.0579 2.65652 20.3743 4.47461 22.1924C6.29269 24.0105 8.60907 25.2486 11.1308 25.7502C13.6526 26.2518 16.2665 25.9944 18.6419 25.0104C21.0173 24.0265 23.0477 22.3603 24.4761 20.2224C25.9046 18.0846 26.667 15.5712 26.667 13C26.6604 9.55422 25.2886 6.25145 22.8521 3.81491C20.4156 1.37837 17.1128 0.00660747 13.667 0ZM19.592 13.3875C19.5375 13.5087 19.4612 13.6188 19.367 13.7125L15.1295 17.95C15.0388 18.0433 14.9298 18.117 14.8094 18.1665C14.689 18.2159 14.5597 18.2401 14.4295 18.2375C14.2975 18.2403 14.1662 18.2163 14.0437 18.1669C13.9213 18.1175 13.8101 18.0437 13.717 17.95C13.53 17.7625 13.425 17.5085 13.425 17.2437C13.425 16.979 13.53 16.725 13.717 16.5375L16.2545 14H8.667C8.40178 14 8.14743 13.8946 7.95989 13.7071C7.77235 13.5196 7.667 13.2652 7.667 13C7.667 12.7348 7.77235 12.4804 7.95989 12.2929C8.14743 12.1054 8.40178 12 8.667 12H16.2545L13.717 9.4625C13.5446 9.27227 13.452 9.02305 13.4584 8.76643C13.4647 8.50982 13.5694 8.26545 13.7509 8.08394C13.9325 7.90243 14.1768 7.79767 14.4334 7.79135C14.6901 7.78503 14.9393 7.87764 15.1295 8.05L19.367 12.2875C19.4612 12.3812 19.5375 12.4913 19.592 12.6125C19.6921 12.8611 19.6921 13.1389 19.592 13.3875Z" fill="#191919"/>
</g>
<defs>
<clipPath id="clip0_4416_2464">
<rect width="26" height="26" fill="white" transform="translate(0.666992)"/>
</clipPath>
</defs>
</svg>
