<svg width="32" height="32" viewBox="0 0 32 32" fill="none" xmlns="http://www.w3.org/2000/svg">
<path d="M16 29C18.5712 29 21.0846 28.2376 23.2224 26.8091C25.3603 25.3806 27.0265 23.3503 28.0104 20.9749C28.9944 18.5994 29.2518 15.9856 28.7502 13.4638C28.2486 10.9421 27.0105 8.6257 25.1924 6.8076C23.3743 4.9895 21.0579 3.7514 18.5362 3.2498C16.0144 2.7482 13.4005 3.0056 11.0251 3.9896C8.6497 4.9735 6.6193 6.6397 5.1909 8.7776C3.7624 10.9154 3 13.4288 3 16C3.0066 19.4458 4.3784 22.7485 6.8149 25.1851C9.2514 27.6216 12.5542 28.9934 16 29ZM11.05 16.05C11.1431 15.9563 11.2543 15.8825 11.3767 15.8331C11.4992 15.7837 11.6305 15.7597 11.7625 15.7625C11.8926 15.7599 12.0219 15.7841 12.1424 15.8335C12.2628 15.883 12.3717 15.9567 12.4625 16.05L15 18.5875L15 11C15 10.7348 15.1054 10.4804 15.2929 10.2929C15.4804 10.1054 15.7348 10 16 10C16.2652 10 16.5196 10.1054 16.7071 10.2929C16.8946 10.4804 17 10.7348 17 11L17 18.5875L19.5375 16.05C19.7277 15.8776 19.9769 15.785 20.2336 15.7914C20.4902 15.7977 20.7345 15.9024 20.9161 16.0839C21.0976 16.2655 21.2023 16.5098 21.2086 16.7664C21.215 17.0231 21.1224 17.2723 20.95 17.4625L16.7125 21.7C16.6188 21.7942 16.5087 21.8705 16.3875 21.925C16.1389 22.0251 15.8611 22.0251 15.6125 21.925C15.4913 21.8705 15.3812 21.7942 15.2875 21.7L11.05 17.4625C10.863 17.275 10.758 17.021 10.758 16.7563C10.758 16.4915 10.863 16.2375 11.05 16.05Z" fill="#0729A2"/>
<path d="M16 29C18.5712 29 21.0846 28.2376 23.2224 26.8091C25.3603 25.3806 27.0265 23.3503 28.0104 20.9749C28.9944 18.5994 29.2518 15.9856 28.7502 13.4638C28.2486 10.9421 27.0105 8.6257 25.1924 6.8076C23.3743 4.9895 21.0579 3.7514 18.5362 3.2498C16.0144 2.7482 13.4005 3.0056 11.0251 3.9896C8.6497 4.9735 6.6193 6.6397 5.1909 8.7776C3.7624 10.9154 3 13.4288 3 16C3.0066 19.4458 4.3784 22.7485 6.8149 25.1851C9.2514 27.6216 12.5542 28.9934 16 29ZM11.05 16.05C11.1431 15.9563 11.2543 15.8825 11.3767 15.8331C11.4992 15.7837 11.6305 15.7597 11.7625 15.7625C11.8926 15.7599 12.0219 15.7841 12.1424 15.8335C12.2628 15.883 12.3717 15.9567 12.4625 16.05L15 18.5875L15 11C15 10.7348 15.1054 10.4804 15.2929 10.2929C15.4804 10.1054 15.7348 10 16 10C16.2652 10 16.5196 10.1054 16.7071 10.2929C16.8946 10.4804 17 10.7348 17 11L17 18.5875L19.5375 16.05C19.7277 15.8776 19.9769 15.785 20.2336 15.7914C20.4902 15.7977 20.7345 15.9024 20.9161 16.0839C21.0976 16.2655 21.2023 16.5098 21.2086 16.7664C21.215 17.0231 21.1224 17.2723 20.95 17.4625L16.7125 21.7C16.6188 21.7942 16.5087 21.8705 16.3875 21.925C16.1389 22.0251 15.8611 22.0251 15.6125 21.925C15.4913 21.8705 15.3812 21.7942 15.2875 21.7L11.05 17.4625C10.863 17.275 10.758 17.021 10.758 16.7563C10.758 16.4915 10.863 16.2375 11.05 16.05Z" fill="black" fill-opacity="0.2"/>
<path d="M16 29C18.5712 29 21.0846 28.2376 23.2224 26.8091C25.3603 25.3806 27.0265 23.3503 28.0104 20.9749C28.9944 18.5994 29.2518 15.9856 28.7502 13.4638C28.2486 10.9421 27.0105 8.6257 25.1924 6.8076C23.3743 4.9895 21.0579 3.7514 18.5362 3.2498C16.0144 2.7482 13.4005 3.0056 11.0251 3.9896C8.6497 4.9735 6.6193 6.6397 5.1909 8.7776C3.7624 10.9154 3 13.4288 3 16C3.0066 19.4458 4.3784 22.7485 6.8149 25.1851C9.2514 27.6216 12.5542 28.9934 16 29ZM11.05 16.05C11.1431 15.9563 11.2543 15.8825 11.3767 15.8331C11.4992 15.7837 11.6305 15.7597 11.7625 15.7625C11.8926 15.7599 12.0219 15.7841 12.1424 15.8335C12.2628 15.883 12.3717 15.9567 12.4625 16.05L15 18.5875L15 11C15 10.7348 15.1054 10.4804 15.2929 10.2929C15.4804 10.1054 15.7348 10 16 10C16.2652 10 16.5196 10.1054 16.7071 10.2929C16.8946 10.4804 17 10.7348 17 11L17 18.5875L19.5375 16.05C19.7277 15.8776 19.9769 15.785 20.2336 15.7914C20.4902 15.7977 20.7345 15.9024 20.9161 16.0839C21.0976 16.2655 21.2023 16.5098 21.2086 16.7664C21.215 17.0231 21.1224 17.2723 20.95 17.4625L16.7125 21.7C16.6188 21.7942 16.5087 21.8705 16.3875 21.925C16.1389 22.0251 15.8611 22.0251 15.6125 21.925C15.4913 21.8705 15.3812 21.7942 15.2875 21.7L11.05 17.4625C10.863 17.275 10.758 17.021 10.758 16.7563C10.758 16.4915 10.863 16.2375 11.05 16.05Z" fill="black" fill-opacity="1"/>
</svg>
