<svg width="179" height="57" viewBox="0 0 179 57" fill="none" xmlns="http://www.w3.org/2000/svg">
<rect x="3.29874" y="1.20273" width="172.143" height="54.6808" rx="11.1387" fill="black" stroke="white" stroke-width="2.02521"/>
<path d="M25.2042 13.1315C24.8679 13.4926 24.7559 14.0944 24.7559 14.8166V41.4172C24.7559 42.1394 24.98 42.7413 25.3163 43.1024L25.4284 43.2227L39.327 28.2975V28.0567L25.2042 13.1315Z" fill="url(#paint0_linear_1544_27035)"/>
<path d="M43.8104 33.3528L39.2148 28.4178V28.0567L43.8104 23.1218L43.9225 23.2421L49.4147 26.6124C50.9839 27.5753 50.9839 29.14 49.4147 30.1029L43.8104 33.3528V33.3528Z" fill="url(#paint1_linear_1544_27035)"/>
<path d="M43.9225 33.232L39.2148 28.1766L25.2041 43.2223C25.7645 43.8241 26.5491 43.8241 27.5579 43.3426L43.9225 33.232" fill="url(#paint2_linear_1544_27035)"/>
<path d="M43.9225 23.1217L27.5579 13.1314C26.5491 12.5296 25.7645 12.65 25.2041 13.2518L39.2148 28.1771L43.9225 23.1217V23.1217Z" fill="url(#paint3_linear_1544_27035)"/>
<path opacity="0.2" d="M43.8104 33.1118L27.5579 42.9817C26.6612 43.5835 25.8766 43.4631 25.3162 42.9817L25.2041 43.1021L25.3162 43.2224C25.8766 43.7039 26.6612 43.8242 27.5579 43.2224L43.8104 33.1118Z" fill="black"/>
<path opacity="0.12" d="M25.2042 42.9815C24.8679 42.6204 24.7559 42.0186 24.7559 41.2964V41.4168C24.7559 42.139 24.98 42.7408 25.3163 43.1019V42.9815H25.2042ZM49.4148 29.7414L43.8105 33.1116L43.9226 33.232L49.4148 29.8617C50.1994 29.3803 50.5356 28.7785 50.5356 28.1766C50.5356 28.7785 50.0873 29.2599 49.4148 29.7414V29.7414Z" fill="black"/>
<path opacity="0.25" d="M27.558 13.2511L49.4148 26.6117C50.0873 27.0931 50.5356 27.5746 50.5356 28.1764C50.5356 27.5746 50.1994 26.9727 49.4148 26.4913L27.558 13.1308C25.9888 12.1679 24.7559 12.89 24.7559 14.8159V14.9362C24.7559 13.1308 25.9888 12.2882 27.558 13.2511Z" fill="white"/>
<path d="M66.6563 16.6782C66.6563 17.6411 66.4321 18.4836 65.8717 19.0855C65.1992 19.8077 64.4146 20.1687 63.4058 20.1687C62.397 20.1687 61.6124 19.8077 60.9399 19.0855C60.2674 18.3633 59.9312 17.5207 59.9312 16.4374C59.9312 15.3541 60.2674 14.5116 60.9399 13.7894C61.6124 13.0672 62.397 12.7061 63.4058 12.7061C63.8542 12.7061 64.3025 12.8265 64.7508 13.0672C65.1992 13.3079 65.5354 13.5487 65.7596 13.9098L65.1992 14.5116C64.7508 13.9098 64.1904 13.669 63.4058 13.669C62.7333 13.669 62.0608 13.9098 61.6124 14.5116C61.052 14.9931 60.8278 15.7152 60.8278 16.5578C60.8278 17.4004 61.052 18.1225 61.6124 18.604C62.1729 19.0855 62.7333 19.4466 63.4058 19.4466C64.1904 19.4466 64.7508 19.2058 65.3113 18.604C65.6475 18.2429 65.8717 17.7614 65.8717 17.1596H63.4058V16.1967H66.6563V16.6782V16.6782ZM71.8123 13.669H68.7859V15.956H71.5881V16.7985H68.7859V19.0855H71.8123V20.0484H67.8893V12.8265H71.8123V13.669ZM75.5111 20.0484H74.6144V13.669H72.7089V12.8265H77.4166V13.669H75.5111V20.0484ZM80.667 20.0484V12.8265H81.5637V20.0484H80.667ZM85.3747 20.0484H84.478V13.669H82.5725V12.8265H87.168V13.669H85.2626V20.0484H85.3747ZM96.0228 19.0855C95.3503 19.8077 94.5657 20.1687 93.5569 20.1687C92.5482 20.1687 91.7636 19.8077 91.091 19.0855C90.4185 18.3633 90.0823 17.5207 90.0823 16.4374C90.0823 15.3541 90.4185 14.5116 91.091 13.7894C91.7636 13.0672 92.5482 12.7061 93.5569 12.7061C94.5657 12.7061 95.3503 13.0672 96.0228 13.7894C96.6953 14.5116 97.0316 15.3541 97.0316 16.4374C97.0316 17.5207 96.6953 18.3633 96.0228 19.0855ZM91.7636 18.4836C92.2119 18.9651 92.8844 19.3262 93.5569 19.3262C94.2294 19.3262 94.902 19.0855 95.3503 18.4836C95.7986 18.0022 96.1349 17.28 96.1349 16.4374C96.1349 15.5949 95.9107 14.8727 95.3503 14.3912C94.902 13.9098 94.2294 13.5487 93.5569 13.5487C92.8844 13.5487 92.2119 13.7894 91.7636 14.3912C91.3152 14.8727 90.979 15.5949 90.979 16.4374C90.979 17.28 91.2031 18.0022 91.7636 18.4836ZM98.2645 20.0484V12.8265H99.2733L102.524 18.4836V12.8265H103.42V20.0484H102.524L99.0491 14.1505V20.0484H98.2645V20.0484Z" fill="white" stroke="white" stroke-width="0.224501" stroke-miterlimit="10"/>
<path d="M90.1944 30.9202C87.5043 30.9202 85.3747 33.0867 85.3747 36.0959C85.3747 38.9846 87.5043 41.2715 90.1944 41.2715C92.8844 41.2715 95.0141 39.105 95.0141 36.0959C95.0141 32.9664 92.8844 30.9202 90.1944 30.9202ZM90.1944 39.105C88.7372 39.105 87.5043 37.781 87.5043 35.9755C87.5043 34.17 88.7372 32.846 90.1944 32.846C91.6515 32.846 92.8844 34.0496 92.8844 35.9755C92.8844 37.781 91.6515 39.105 90.1944 39.105ZM79.7704 30.9202C77.0803 30.9202 74.9507 33.0867 74.9507 36.0959C74.9507 38.9846 77.0803 41.2715 79.7704 41.2715C82.4604 41.2715 84.5901 39.105 84.5901 36.0959C84.5901 32.9664 82.4604 30.9202 79.7704 30.9202ZM79.7704 39.105C78.3132 39.105 77.0803 37.781 77.0803 35.9755C77.0803 34.17 78.3132 32.846 79.7704 32.846C81.2275 32.846 82.4604 34.0496 82.4604 35.9755C82.4604 37.781 81.2275 39.105 79.7704 39.105ZM67.3288 32.4849V34.6515H72.1485C72.0364 35.8551 71.5881 36.818 71.0277 37.4199C70.3551 38.1421 69.2343 38.9846 67.3288 38.9846C64.3025 38.9846 62.0608 36.4569 62.0608 33.2071C62.0608 29.9572 64.4146 27.4296 67.3288 27.4296C68.898 27.4296 70.131 28.1518 71.0277 28.9943L72.4848 27.4296C71.2518 26.2259 69.6826 25.263 67.4409 25.263C63.4058 25.263 59.9312 28.874 59.9312 33.2071C59.9312 37.5402 63.4058 41.1512 67.4409 41.1512C69.6826 41.1512 71.2518 40.429 72.5969 38.8642C73.9419 37.4199 74.3902 35.3737 74.3902 33.8089C74.3902 33.3275 74.3902 32.846 74.2782 32.4849H67.3288ZM118.216 34.17C117.768 32.9664 116.647 30.9202 114.181 30.9202C111.715 30.9202 109.697 32.9664 109.697 36.0959C109.697 38.9846 111.715 41.2715 114.405 41.2715C116.535 41.2715 117.88 39.8272 118.328 38.9846L116.759 37.781C116.198 38.6235 115.526 39.2253 114.405 39.2253C113.284 39.2253 112.612 38.7439 112.051 37.6606L118.44 34.7718L118.216 34.17ZM111.715 35.8551C111.715 33.9293 113.172 32.846 114.181 32.846C114.965 32.846 115.75 33.3275 115.974 33.9293L111.715 35.8551ZM106.447 40.7901H108.576V25.7445H106.447V40.7901ZM103.084 32.0034C102.524 31.4016 101.627 30.7998 100.506 30.7998C98.1525 30.7998 95.9107 33.0867 95.9107 35.9755C95.9107 38.8642 98.0404 41.0308 100.506 41.0308C101.627 41.0308 102.524 40.429 102.972 39.8272H103.084V40.5494C103.084 42.4752 102.075 43.5585 100.506 43.5585C99.2733 43.5585 98.3766 42.5956 98.1525 41.753L96.3591 42.5956C96.9195 43.9196 98.2646 45.6047 100.618 45.6047C103.084 45.6047 105.102 44.0399 105.102 40.3086V31.1609H103.084V32.0034ZM100.618 39.105C99.1612 39.105 97.9283 37.781 97.9283 35.9755C97.9283 34.17 99.1612 32.846 100.618 32.846C102.075 32.846 103.196 34.17 103.196 35.9755C103.196 37.781 102.075 39.105 100.618 39.105ZM127.967 25.7445H122.923V40.7901H125.053V35.1329H127.967C130.321 35.1329 132.563 33.3275 132.563 30.4387C132.563 27.5499 130.321 25.7445 127.967 25.7445ZM128.079 32.9664H125.053V27.7907H128.079C129.649 27.7907 130.545 29.235 130.545 30.3183C130.433 31.6423 129.537 32.9664 128.079 32.9664ZM140.969 30.7998C139.4 30.7998 137.831 31.522 137.27 33.0867L139.176 33.9293C139.624 33.0867 140.297 32.846 141.081 32.846C142.202 32.846 143.211 33.5682 143.323 34.7718V34.8922C142.987 34.6515 142.09 34.2904 141.193 34.2904C139.176 34.2904 137.158 35.494 137.158 37.6606C137.158 39.7068 138.84 41.0308 140.633 41.0308C142.09 41.0308 142.763 40.3086 143.323 39.5864H143.435V40.7901H145.453V35.0126C145.229 32.3645 143.323 30.7998 140.969 30.7998ZM140.745 39.105C140.073 39.105 139.064 38.7439 139.064 37.781C139.064 36.5773 140.297 36.2162 141.306 36.2162C142.202 36.2162 142.651 36.4569 143.211 36.6977C142.987 38.1421 141.866 39.105 140.745 39.105ZM152.514 31.1609L150.16 37.6606H150.048L147.582 31.1609H145.341L149.039 40.3086L146.91 45.364H149.039L154.756 31.1609H152.514ZM133.684 40.7901H135.813V25.7445H133.684V40.7901Z" fill="white"/>
<defs>
<linearGradient id="paint0_linear_1544_27035" x1="37.982" y1="14.5879" x2="17.8324" y2="33.3504" gradientUnits="userSpaceOnUse">
<stop stop-color="#00A0FF"/>
<stop offset="0.007" stop-color="#00A1FF"/>
<stop offset="0.26" stop-color="#00BEFF"/>
<stop offset="0.512" stop-color="#00D2FF"/>
<stop offset="0.76" stop-color="#00DFFF"/>
<stop offset="1" stop-color="#00E3FF"/>
</linearGradient>
<linearGradient id="paint1_linear_1544_27035" x1="51.4703" y1="28.1783" x2="24.3489" y2="28.1783" gradientUnits="userSpaceOnUse">
<stop stop-color="#FFE000"/>
<stop offset="0.409" stop-color="#FFBD00"/>
<stop offset="0.775" stop-color="#FFA500"/>
<stop offset="1" stop-color="#FF9C00"/>
</linearGradient>
<linearGradient id="paint2_linear_1544_27035" x1="41.3747" y1="30.9402" x2="14.0515" y2="56.3841" gradientUnits="userSpaceOnUse">
<stop stop-color="#FF3A44"/>
<stop offset="1" stop-color="#C31162"/>
</linearGradient>
<linearGradient id="paint3_linear_1544_27035" x1="21.7261" y1="4.31592" x2="33.9278" y2="15.6783" gradientUnits="userSpaceOnUse">
<stop stop-color="#32A071"/>
<stop offset="0.069" stop-color="#2DA771"/>
<stop offset="0.476" stop-color="#15CF74"/>
<stop offset="0.801" stop-color="#06E775"/>
<stop offset="1" stop-color="#00F076"/>
</linearGradient>
</defs>
</svg>
