<svg width="32" height="32" viewBox="0 0 32 32" fill="none" xmlns="http://www.w3.org/2000/svg">
<rect x="0.5" y="0.5" width="31" height="31" rx="15.5" stroke="#28289F"/>
<g clip-path="url(#clip0_4461_2012)">
<path d="M24.3868 12.5213C24.3457 11.6232 24.2032 11.0098 23.9945 10.4731C23.7789 9.91828 23.4904 9.44773 23.0214 8.97867C22.5522 8.50959 22.0817 8.22109 21.5269 8.00546C20.9902 7.79687 20.3768 7.65427 19.4787 7.61326C18.5788 7.5722 18.2915 7.5625 16 7.5625C13.7085 7.5625 13.4212 7.5722 12.5213 7.61326C11.6232 7.65427 11.0098 7.79687 10.4731 8.00546C9.91831 8.22109 9.44773 8.50957 8.97867 8.97867C8.50959 9.44773 8.22109 9.91828 8.00546 10.4731C7.79687 11.0098 7.65427 11.6232 7.61326 12.5213C7.5722 13.4212 7.5625 13.7085 7.5625 16C7.5625 18.2915 7.5722 18.5788 7.61326 19.4787C7.65427 20.3768 7.79687 20.9902 8.00546 21.5269C8.22109 22.0816 8.50957 22.5522 8.97867 23.0214C9.44773 23.4904 9.91831 23.7789 10.4731 23.9945C11.0098 24.2032 11.6232 24.3457 12.5213 24.3868C13.4212 24.4278 13.7085 24.4375 16 24.4375C18.2915 24.4375 18.5788 24.4278 19.4787 24.3868C20.3768 24.3457 20.9902 24.2032 21.5269 23.9945C22.0817 23.7789 22.5522 23.4904 23.0214 23.0214C23.4904 22.5522 23.7789 22.0817 23.9945 21.5269C24.2032 20.9902 24.3457 20.3768 24.3868 19.4787C24.4278 18.5787 24.4375 18.2915 24.4375 16C24.4375 13.7085 24.4278 13.4212 24.3868 12.5213ZM22.868 19.4094C22.8306 20.2321 22.6931 20.6789 22.5775 20.9762C22.4244 21.37 22.2416 21.6511 21.9464 21.9464C21.6511 22.2416 21.37 22.4244 20.9762 22.5775C20.6789 22.6931 20.2321 22.8306 19.4094 22.868C18.5199 22.9086 18.253 22.9172 16 22.9172C13.7469 22.9172 13.4801 22.9086 12.5905 22.868C11.7679 22.8306 11.3211 22.6931 11.0238 22.5775C10.63 22.4244 10.3489 22.2416 10.0537 21.9464C9.7584 21.6511 9.57553 21.37 9.42246 20.9762C9.30693 20.6789 9.16949 20.2321 9.13194 19.4094C9.09136 18.5198 9.08276 18.2529 9.08276 16C9.08276 13.7471 9.09134 13.4802 9.13194 12.5905C9.16949 11.7679 9.30693 11.3211 9.42246 11.0238C9.57551 10.63 9.75838 10.3489 10.0536 10.0537C10.3489 9.7584 10.63 9.57553 11.0238 9.42246C11.3211 9.30693 11.7679 9.16949 12.5905 9.13194C13.4802 9.09136 13.7471 9.08276 16 9.08276C18.2529 9.08276 18.5198 9.09134 19.4094 9.13194C20.2321 9.16949 20.6789 9.30693 20.9762 9.42246C21.37 9.57551 21.6511 9.75838 21.9464 10.0536C22.2416 10.3489 22.4244 10.63 22.5775 11.0238C22.6931 11.3211 22.8306 11.7679 22.868 12.5905C22.9086 13.4802 22.9172 13.7471 22.9172 16C22.9172 18.2529 22.9086 18.5198 22.868 19.4094Z" fill="#28289F"/>
<path d="M16.0007 11.6675C13.6078 11.6675 11.668 13.6073 11.668 16.0003C11.668 18.3931 13.6078 20.333 16.0007 20.333C18.3936 20.333 20.3335 18.3931 20.3335 16.0003C20.3335 13.6073 18.3936 11.6675 16.0007 11.6675ZM16.0007 18.8128C14.4474 18.8128 13.1882 17.5535 13.1882 16.0003C13.1882 14.447 14.4474 13.1877 16.0007 13.1877C17.554 13.1877 18.8133 14.4469 18.8133 16.0003C18.8133 17.5535 17.554 18.8128 16.0007 18.8128Z" fill="#28289F"/>
<path d="M20.5047 12.5094C21.0639 12.5094 21.5172 12.056 21.5172 11.4969C21.5172 10.9377 21.0639 10.4844 20.5047 10.4844C19.9456 10.4844 19.4922 10.9377 19.4922 11.4969C19.4922 12.056 19.9456 12.5094 20.5047 12.5094Z" fill="#28289F"/>
</g>
<defs>
<clipPath id="clip0_4461_2012">
<rect width="18" height="18" fill="white" transform="translate(7 7)"/>
</clipPath>
</defs>
</svg>
