<svg width="32" height="32" viewBox="0 0 32 32" fill="none" xmlns="http://www.w3.org/2000/svg">
<rect x="0.5" y="0.5" width="31" height="31" rx="15.5" stroke="#28289F"/>
<g clip-path="url(#clip0_4461_2011)">
<path d="M11.3473 9.3666C11.3473 10.383 10.5984 11.1853 9.36811 11.1853C8.19128 11.1853 7.44238 10.383 7.44238 9.3666C7.44238 8.35025 8.19128 7.54785 9.36811 7.54785C10.5984 7.54785 11.2938 8.35025 11.3473 9.3666ZM7.54937 24.4514V12.6831H11.1868V24.4514H7.54937ZM13.4335 16.4276C13.4335 14.9833 13.38 13.7529 13.3265 12.6831H16.4826L16.6431 14.3414H16.6966C17.178 13.5925 18.3548 12.4156 20.334 12.4156C22.7412 12.4156 24.5599 14.0204 24.5599 17.4974V24.4514H20.9224V17.9254C20.9224 16.4276 20.3875 15.3577 19.0502 15.3577C18.0339 15.3577 17.4454 16.0531 17.178 16.7485C17.071 16.9625 17.071 17.3369 17.071 17.6579V24.4514H13.4335V16.4276Z" fill="#28289F"/>
</g>
<defs>
<clipPath id="clip0_4461_2011">
<rect width="18" height="18" fill="white" transform="translate(7 7)"/>
</clipPath>
</defs>
</svg>
