<svg width="32" height="32" viewBox="0 0 32 32" fill="none" xmlns="http://www.w3.org/2000/svg">
<rect x="0.5" y="0.5" width="31" height="31" rx="15.5" stroke="#28289F"/>
<g clip-path="url(#clip0_4461_2010)">
<path d="M24.7272 10.4154C24.0747 10.6898 23.4222 10.9093 22.6609 10.9641C23.4222 10.5252 23.9659 9.81181 24.2378 8.98872C23.5309 9.4277 22.7697 9.70208 21.9541 9.86669C21.3014 9.15335 20.3771 8.71436 19.3439 8.71436C17.3864 8.71436 15.7551 10.3057 15.7551 12.336C15.7551 12.6103 15.8095 12.8847 15.8639 13.1591C12.8732 12.9944 10.2631 11.5677 8.5231 9.37283C8.19685 9.92155 8.03372 10.5252 8.03372 11.1836C8.03372 12.4457 8.68624 13.5432 9.61063 14.2016C9.01249 14.2016 8.46873 14.037 7.97934 13.7627V13.8175C7.97934 15.5735 9.22999 17.0002 10.8613 17.3294C10.535 17.3843 10.2631 17.4391 9.93689 17.4391C9.71938 17.4391 9.50188 17.4392 9.28438 17.3843C9.71938 18.811 11.0788 19.8536 12.6013 19.9084C11.405 20.8961 9.82813 21.4449 8.14247 21.4449C7.87059 21.4449 7.54434 21.4449 7.27246 21.39C8.84937 22.4325 10.7525 23.0362 12.7644 23.0362C19.3439 23.0362 22.9328 17.5489 22.9328 12.7749C22.9328 12.6103 22.9328 12.4457 22.9328 12.336C23.6396 11.7324 24.2921 11.1288 24.7272 10.4154Z" fill="#28289F"/>
</g>
<defs>
<clipPath id="clip0_4461_2010">
<rect width="18" height="15.75" fill="white" transform="translate(7 8)"/>
</clipPath>
</defs>
</svg>
